<svg width="427" height="859" viewBox="0 0 427 859" fill="none" xmlns="http://www.w3.org/2000/svg">
<rect x="2" y="2" width="423" height="855" rx="38" fill="white" stroke="#D0D0D0" stroke-width="4"/>
<path d="M95.439 139.82V126.05C95.439 124.97 95.259 124.28 94.899 123.98C94.599 123.62 93.909 123.44 92.829 123.44H86.169C83.289 123.44 81.189 122.75 79.869 121.37C78.609 119.99 77.979 118.01 77.979 115.43V100.58C77.979 98 78.639 96.05 79.959 94.73C81.339 93.35 83.469 92.66 86.349 92.66H95.169C98.109 92.66 100.239 93.35 101.559 94.73C102.879 96.05 103.539 98 103.539 100.58V108.86H95.349V101.84C95.349 100.76 95.169 100.07 94.809 99.77C94.509 99.41 93.789 99.23 92.649 99.23H88.869C87.789 99.23 87.069 99.41 86.709 99.77C86.349 100.07 86.169 100.76 86.169 101.84V114.35C86.169 115.37 86.349 116.06 86.709 116.42C87.069 116.78 87.789 116.96 88.869 116.96H95.439C98.319 116.96 100.419 117.65 101.739 119.03C103.059 120.35 103.719 122.3 103.719 124.88V141.08C103.719 143.66 103.029 145.64 101.649 147.02C100.329 148.34 98.229 149 95.349 149H86.529C83.649 149 81.519 148.34 80.139 147.02C78.819 145.64 78.159 143.66 78.159 141.08V132.8H86.349V139.82C86.349 140.84 86.529 141.53 86.889 141.89C87.249 142.25 87.969 142.43 89.049 142.43H92.829C93.909 142.43 94.599 142.25 94.899 141.89C95.259 141.53 95.439 140.84 95.439 139.82ZM117.426 149H109.326V105.08H117.426V149ZM109.146 96.71V88.7H117.606V96.71H109.146ZM148.543 149H140.443V114.26C140.443 113.18 140.263 112.49 139.903 112.19C139.543 111.83 138.823 111.65 137.743 111.65H134.593C133.573 111.65 132.823 111.89 132.343 112.37C131.863 112.85 131.623 113.66 131.623 114.8V117.68H131.263V111.2C131.263 109.04 131.803 107.48 132.883 106.52C133.963 105.56 135.403 105.08 137.203 105.08H140.443C143.203 105.08 145.243 105.77 146.563 107.15C147.883 108.47 148.543 110.45 148.543 113.09V149ZM131.623 149H123.523V105.08H131.623V110.57V111.11V149ZM165.463 149H157.273V114.26C157.273 113.18 157.093 112.49 156.733 112.19C156.433 111.83 155.743 111.65 154.663 111.65H151.423C150.463 111.65 149.743 111.89 149.263 112.37C148.783 112.85 148.543 113.66 148.543 114.8V117.68H147.823L147.643 111.29C147.583 109.13 148.153 107.57 149.353 106.61C150.613 105.59 152.203 105.08 154.123 105.08H157.273C160.093 105.08 162.163 105.77 163.483 107.15C164.803 108.47 165.463 110.45 165.463 113.09V149ZM196.137 128.57H188.037V114.26C188.037 113.18 187.857 112.49 187.497 112.19C187.137 111.83 186.417 111.65 185.337 111.65H182.187C181.167 111.65 180.417 111.89 179.937 112.37C179.457 112.85 179.217 113.66 179.217 114.8V117.68H178.857V111.2C178.857 109.04 179.397 107.48 180.477 106.52C181.557 105.56 182.997 105.08 184.797 105.08H188.037C190.797 105.08 192.837 105.77 194.157 107.15C195.477 108.47 196.137 110.45 196.137 113.09V128.57ZM179.217 161.42H171.117V105.08H179.217V110.3V111.2V161.42ZM188.037 125.51H196.137V141.08C196.137 143.66 195.477 145.64 194.157 147.02C192.837 148.34 190.797 149 188.037 149H184.797C182.997 149 181.557 148.52 180.477 147.56C179.397 146.6 178.857 145.04 178.857 142.88V137.21H179.217V139.28C179.217 140.48 179.457 141.32 179.937 141.8C180.417 142.22 181.167 142.43 182.187 142.43H185.337C186.417 142.43 187.137 142.25 187.497 141.89C187.857 141.53 188.037 140.84 188.037 139.82V125.51ZM209.849 149H201.749V88.79H209.849V149ZM224.045 149H215.945V105.08H224.045V149ZM215.765 96.71V88.7H224.225V96.71H215.765ZM256.151 149H248.051V105.08H256.151V149ZM239.141 98.15V149H231.131V96.71C231.131 94.13 231.791 92.18 233.111 90.86C234.491 89.48 236.621 88.79 239.501 88.79H243.641V95.54H241.841C240.761 95.54 240.041 95.72 239.681 96.08C239.321 96.38 239.141 97.07 239.141 98.15ZM254.261 105.08V111.65H226.721V105.08H254.261ZM248.051 95.54V88.79H256.151V95.54H248.051ZM269.827 128.57H261.727V113.09C261.727 110.45 262.387 108.47 263.707 107.15C265.027 105.77 267.067 105.08 269.827 105.08H273.067C274.867 105.08 276.307 105.56 277.387 106.52C278.467 107.48 279.007 109.04 279.007 111.2V117.68H278.647V114.8C278.647 113.66 278.407 112.85 277.927 112.37C277.447 111.89 276.697 111.65 275.677 111.65H272.527C271.447 111.65 270.727 111.83 270.367 112.19C270.007 112.49 269.827 113.18 269.827 114.26V128.57ZM286.747 161.42H278.647V111.2V110.3V105.08H286.747V161.42ZM261.727 125.51H269.827V139.82C269.827 140.84 270.007 141.53 270.367 141.89C270.727 142.25 271.447 142.43 272.527 142.43H275.677C276.697 142.43 277.447 142.22 277.927 141.8C278.407 141.32 278.647 140.48 278.647 139.28V137.21H279.007V142.88C279.007 145.04 278.467 146.6 277.387 147.56C276.307 148.52 274.867 149 273.067 149H269.827C267.067 149 265.027 148.34 263.707 147.02C262.387 145.64 261.727 143.66 261.727 141.08V125.51ZM292.808 105.08H300.908V139.82C300.908 140.84 301.088 141.53 301.448 141.89C301.808 142.25 302.528 142.43 303.608 142.43H306.758C307.778 142.43 308.528 142.22 309.008 141.8C309.488 141.32 309.728 140.48 309.728 139.28V136.4H310.088V142.88C310.088 145.04 309.548 146.6 308.468 147.56C307.388 148.52 305.948 149 304.148 149H300.908C298.148 149 296.108 148.34 294.788 147.02C293.468 145.64 292.808 143.66 292.808 141.08V105.08ZM309.728 105.08H317.828V149H309.728V143.51V142.97V105.08ZM331.709 114.08V140C331.709 141.02 331.889 141.71 332.249 142.07C332.609 142.43 333.329 142.61 334.409 142.61H336.659V149H332.159C329.279 149 327.149 148.34 325.769 147.02C324.449 145.64 323.789 143.66 323.789 141.08V113.09C323.789 110.45 324.449 108.47 325.769 107.15C327.149 105.77 329.279 105.08 332.159 105.08H337.109V111.47H334.409C333.329 111.47 332.609 111.65 332.249 112.01C331.889 112.31 331.709 113 331.709 114.08ZM341.429 128.39V114.08C341.429 113 341.249 112.31 340.889 112.01C340.589 111.65 339.899 111.47 338.819 111.47H335.939V105.08H340.979C343.919 105.08 346.049 105.77 347.369 107.15C348.749 108.47 349.439 110.45 349.439 113.09V128.39H341.429ZM341.249 139.91V136.31H349.169V141.08C349.169 143.66 348.509 145.64 347.189 147.02C345.869 148.34 343.739 149 340.799 149H335.939V142.61H338.549C339.689 142.61 340.409 142.43 340.709 142.07C341.069 141.71 341.249 140.99 341.249 139.91ZM349.439 123.62V129.56H326.669V123.62H349.439ZM101.834 359.26V384.82C101.834 385.84 102.014 386.53 102.374 386.89C102.734 387.25 103.454 387.43 104.534 387.43H106.604V394H102.104C99.2243 394 97.0943 393.34 95.7143 392.02C94.3943 390.64 93.7343 388.66 93.7343 386.08V358.09C93.7343 355.45 94.3943 353.47 95.7143 352.15C97.0943 350.77 99.2243 350.08 102.104 350.08H107.054V356.65H104.534C103.454 356.65 102.734 356.83 102.374 357.19C102.014 357.49 101.834 358.18 101.834 359.26ZM111.104 363.94V359.26C111.104 358.18 110.924 357.49 110.564 357.19C110.204 356.83 109.484 356.65 108.404 356.65H105.794V350.08H110.654C113.594 350.08 115.724 350.77 117.044 352.15C118.424 353.47 119.114 355.45 119.114 358.09V363.94H111.104ZM111.104 384.82V380.14H119.114V386.08C119.114 388.66 118.424 390.64 117.044 392.02C115.724 393.34 113.594 394 110.654 394H105.794V387.43H108.404C109.484 387.43 110.204 387.25 110.564 386.89C110.924 386.53 111.104 385.84 111.104 384.82ZM141.935 379.6V359.17C141.935 358.03 141.755 357.31 141.395 357.01C141.095 356.65 140.375 356.47 139.235 356.47H136.535V350.08H141.575C144.515 350.08 146.645 350.77 147.965 352.15C149.285 353.47 149.945 355.45 149.945 358.09V379.6H141.935ZM141.935 384.91V375.82H149.945V386.08C149.945 388.66 149.285 390.64 147.965 392.02C146.645 393.34 144.515 394 141.575 394H136.085V387.61H139.235C140.375 387.61 141.095 387.43 141.395 387.07C141.755 386.71 141.935 385.99 141.935 384.91ZM131.675 359.17V379.69H123.665V358.09C123.665 355.45 124.325 353.47 125.645 352.15C126.965 350.77 129.065 350.08 131.945 350.08H137.075V356.47H134.375C133.295 356.47 132.575 356.65 132.215 357.01C131.855 357.31 131.675 358.03 131.675 359.17ZM131.675 375.28V384.91C131.675 385.99 131.855 386.71 132.215 387.07C132.575 387.43 133.295 387.61 134.375 387.61H136.805V394H131.945C129.065 394 126.965 393.34 125.645 392.02C124.325 390.64 123.665 388.66 123.665 386.08V375.28H131.675ZM163.725 394H155.625V350.08H163.725V355.57V356.11V394ZM180.645 394H172.545V359.26C172.545 358.18 172.365 357.49 172.005 357.19C171.645 356.83 170.925 356.65 169.845 356.65H166.695C165.675 356.65 164.925 356.89 164.445 357.37C163.965 357.85 163.725 358.66 163.725 359.8V362.68H163.365V356.2C163.365 354.04 163.905 352.48 164.985 351.52C166.065 350.56 167.505 350.08 169.305 350.08H172.545C175.305 350.08 177.345 350.77 178.665 352.15C179.985 353.47 180.645 355.45 180.645 358.09V394ZM194.257 373.57H186.157V358.09C186.157 355.45 186.817 353.47 188.137 352.15C189.457 350.77 191.497 350.08 194.257 350.08H197.497C199.297 350.08 200.737 350.56 201.817 351.52C202.897 352.48 203.437 354.04 203.437 356.2V362.68H203.077V359.8C203.077 358.66 202.837 357.85 202.357 357.37C201.877 356.89 201.127 356.65 200.107 356.65H196.957C195.877 356.65 195.157 356.83 194.797 357.19C194.437 357.49 194.257 358.18 194.257 359.26V373.57ZM211.177 406.42H203.077V356.2V355.3V350.08H211.177V406.42ZM186.157 370.51H194.257V384.82C194.257 385.84 194.437 386.53 194.797 386.89C195.157 387.25 195.877 387.43 196.957 387.43H200.107C201.127 387.43 201.877 387.22 202.357 386.8C202.837 386.32 203.077 385.48 203.077 384.28V382.21H203.437V387.88C203.437 390.04 202.897 391.6 201.817 392.56C200.737 393.52 199.297 394 197.497 394H194.257C191.497 394 189.457 393.34 188.137 392.02C186.817 390.64 186.157 388.66 186.157 386.08V370.51ZM217.238 350.08H225.338V384.82C225.338 385.84 225.518 386.53 225.878 386.89C226.238 387.25 226.958 387.43 228.038 387.43H231.188C232.208 387.43 232.958 387.22 233.438 386.8C233.918 386.32 234.158 385.48 234.158 384.28V381.4H234.518V387.88C234.518 390.04 233.978 391.6 232.898 392.56C231.818 393.52 230.378 394 228.578 394H225.338C222.578 394 220.538 393.34 219.218 392.02C217.898 390.64 217.238 388.66 217.238 386.08V350.08ZM234.158 350.08H242.258V394H234.158V388.51V387.97V350.08ZM256.499 394H248.399V350.08H256.499V394ZM248.219 341.71V333.7H256.679V341.71H248.219ZM277.265 385.18V377.89C277.265 376.81 277.085 376.12 276.725 375.82C276.425 375.46 275.705 375.28 274.565 375.28H269.975C267.035 375.28 264.905 374.62 263.585 373.3C262.265 371.92 261.605 369.94 261.605 367.36V358.09C261.605 355.45 262.265 353.47 263.585 352.15C264.965 350.77 267.095 350.08 269.975 350.08H276.545C279.485 350.08 281.615 350.77 282.935 352.15C284.315 353.47 285.005 355.45 285.005 358.09V362.32H277.085V358.9C277.085 357.82 276.905 357.13 276.545 356.83C276.245 356.47 275.525 356.29 274.385 356.29H272.225C271.145 356.29 270.425 356.47 270.065 356.83C269.705 357.13 269.525 357.82 269.525 358.9V366.46C269.525 367.54 269.705 368.26 270.065 368.62C270.425 368.92 271.145 369.07 272.225 369.07H276.905C279.785 369.07 281.885 369.76 283.205 371.14C284.525 372.46 285.185 374.44 285.185 377.08V386.08C285.185 388.66 284.495 390.64 283.115 392.02C281.795 393.34 279.695 394 276.815 394H270.155C267.275 394 265.145 393.34 263.765 392.02C262.445 390.64 261.785 388.66 261.785 386.08V381.76H269.795V385.18C269.795 386.2 269.975 386.89 270.335 387.25C270.695 387.61 271.385 387.79 272.405 387.79H274.565C275.705 387.79 276.425 387.61 276.725 387.25C277.085 386.89 277.265 386.2 277.265 385.18ZM299.147 342.61V384.46C299.147 385.48 299.327 386.17 299.687 386.53C300.047 386.89 300.737 387.07 301.757 387.07H305.177V394H299.417C296.477 394 294.317 393.34 292.937 392.02C291.617 390.64 290.957 388.66 290.957 386.08V342.61H299.147ZM305.177 350.08V356.65H286.817V350.08H305.177ZM315.954 359.08V385C315.954 386.02 316.134 386.71 316.494 387.07C316.854 387.43 317.574 387.61 318.654 387.61H320.904V394H316.404C313.524 394 311.394 393.34 310.014 392.02C308.694 390.64 308.034 388.66 308.034 386.08V358.09C308.034 355.45 308.694 353.47 310.014 352.15C311.394 350.77 313.524 350.08 316.404 350.08H321.354V356.47H318.654C317.574 356.47 316.854 356.65 316.494 357.01C316.134 357.31 315.954 358 315.954 359.08ZM325.674 373.39V359.08C325.674 358 325.494 357.31 325.134 357.01C324.834 356.65 324.144 356.47 323.064 356.47H320.184V350.08H325.224C328.164 350.08 330.294 350.77 331.614 352.15C332.994 353.47 333.684 355.45 333.684 358.09V373.39H325.674ZM325.494 384.91V381.31H333.414V386.08C333.414 388.66 332.754 390.64 331.434 392.02C330.114 393.34 327.984 394 325.044 394H320.184V387.61H322.794C323.934 387.61 324.654 387.43 324.954 387.07C325.314 386.71 325.494 385.99 325.494 384.91ZM333.684 368.62V374.56H310.914V368.62H333.684Z" fill="#DB7412"/>
<path d="M84.9554 264.6V244.17C84.9554 243.03 84.7754 242.31 84.4154 242.01C84.1154 241.65 83.3954 241.47 82.2554 241.47H79.5554V235.08H84.5954C87.5354 235.08 89.6654 235.77 90.9854 237.15C92.3054 238.47 92.9654 240.45 92.9654 243.09V264.6H84.9554ZM84.9554 269.91V260.82H92.9654V271.08C92.9654 273.66 92.3054 275.64 90.9854 277.02C89.6654 278.34 87.5354 279 84.5954 279H79.1054V272.61H82.2554C83.3954 272.61 84.1154 272.43 84.4154 272.07C84.7754 271.71 84.9554 270.99 84.9554 269.91ZM74.6954 244.17V264.69H66.6854V243.09C66.6854 240.45 67.3454 238.47 68.6654 237.15C69.9854 235.77 72.0854 235.08 74.9654 235.08H80.0954V241.47H77.3954C76.3154 241.47 75.5954 241.65 75.2354 242.01C74.8754 242.31 74.6954 243.03 74.6954 244.17ZM74.6954 260.28V269.91C74.6954 270.99 74.8754 271.71 75.2354 272.07C75.5954 272.43 76.3154 272.61 77.3954 272.61H79.8254V279H74.9654C72.0854 279 69.9854 278.34 68.6654 277.02C67.3454 275.64 66.6854 273.66 66.6854 271.08V260.28H74.6954ZM117.414 244.26V269.82C117.414 270.84 117.594 271.53 117.954 271.89C118.314 272.25 119.034 272.43 120.114 272.43H122.184V279H117.684C114.804 279 112.674 278.34 111.294 277.02C109.974 275.64 109.314 273.66 109.314 271.08V243.09C109.314 240.45 109.974 238.47 111.294 237.15C112.674 235.77 114.804 235.08 117.684 235.08H122.634V241.65H120.114C119.034 241.65 118.314 241.83 117.954 242.19C117.594 242.49 117.414 243.18 117.414 244.26ZM126.684 248.94V244.26C126.684 243.18 126.504 242.49 126.144 242.19C125.784 241.83 125.064 241.65 123.984 241.65H121.374V235.08H126.234C129.174 235.08 131.304 235.77 132.624 237.15C134.004 238.47 134.694 240.45 134.694 243.09V248.94H126.684ZM126.684 269.82V265.14H134.694V271.08C134.694 273.66 134.004 275.64 132.624 277.02C131.304 278.34 129.174 279 126.234 279H121.374V272.43H123.984C125.064 272.43 125.784 272.25 126.144 271.89C126.504 271.53 126.684 270.84 126.684 269.82ZM157.514 264.6V244.17C157.514 243.03 157.334 242.31 156.974 242.01C156.674 241.65 155.954 241.47 154.814 241.47H152.114V235.08H157.154C160.094 235.08 162.224 235.77 163.544 237.15C164.864 238.47 165.524 240.45 165.524 243.09V264.6H157.514ZM157.514 269.91V260.82H165.524V271.08C165.524 273.66 164.864 275.64 163.544 277.02C162.224 278.34 160.094 279 157.154 279H151.664V272.61H154.814C155.954 272.61 156.674 272.43 156.974 272.07C157.334 271.71 157.514 270.99 157.514 269.91ZM147.254 244.17V264.69H139.244V243.09C139.244 240.45 139.904 238.47 141.224 237.15C142.544 235.77 144.644 235.08 147.524 235.08H152.654V241.47H149.954C148.874 241.47 148.154 241.65 147.794 242.01C147.434 242.31 147.254 243.03 147.254 244.17ZM147.254 260.28V269.91C147.254 270.99 147.434 271.71 147.794 272.07C148.154 272.43 148.874 272.61 149.954 272.61H152.384V279H147.524C144.644 279 142.544 278.34 141.224 277.02C139.904 275.64 139.244 273.66 139.244 271.08V260.28H147.254ZM196.225 279H188.125V244.26C188.125 243.18 187.945 242.49 187.585 242.19C187.225 241.83 186.505 241.65 185.425 241.65H182.275C181.255 241.65 180.505 241.89 180.025 242.37C179.545 242.85 179.305 243.66 179.305 244.8V247.68H178.945V241.2C178.945 239.04 179.485 237.48 180.565 236.52C181.645 235.56 183.085 235.08 184.885 235.08H188.125C190.885 235.08 192.925 235.77 194.245 237.15C195.565 238.47 196.225 240.45 196.225 243.09V279ZM179.305 279H171.205V235.08H179.305V240.57V241.11V279ZM213.145 279H204.955V244.26C204.955 243.18 204.775 242.49 204.415 242.19C204.115 241.83 203.425 241.65 202.345 241.65H199.105C198.145 241.65 197.425 241.89 196.945 242.37C196.465 242.85 196.225 243.66 196.225 244.8V247.68H195.505L195.325 241.29C195.265 239.13 195.835 237.57 197.035 236.61C198.295 235.59 199.885 235.08 201.805 235.08H204.955C207.775 235.08 209.845 235.77 211.165 237.15C212.485 238.47 213.145 240.45 213.145 243.09V279ZM243.819 258.57H235.719V244.26C235.719 243.18 235.539 242.49 235.179 242.19C234.819 241.83 234.099 241.65 233.019 241.65H229.869C228.849 241.65 228.099 241.89 227.619 242.37C227.139 242.85 226.899 243.66 226.899 244.8V247.68H226.539V241.2C226.539 239.04 227.079 237.48 228.159 236.52C229.239 235.56 230.679 235.08 232.479 235.08H235.719C238.479 235.08 240.519 235.77 241.839 237.15C243.159 238.47 243.819 240.45 243.819 243.09V258.57ZM226.899 291.42H218.799V235.08H226.899V240.3V241.2V291.42ZM235.719 255.51H243.819V271.08C243.819 273.66 243.159 275.64 241.839 277.02C240.519 278.34 238.479 279 235.719 279H232.479C230.679 279 229.239 278.52 228.159 277.56C227.079 276.6 226.539 275.04 226.539 272.88V267.21H226.899V269.28C226.899 270.48 227.139 271.32 227.619 271.8C228.099 272.22 228.849 272.43 229.869 272.43H233.019C234.099 272.43 234.819 272.25 235.179 271.89C235.539 271.53 235.719 270.84 235.719 269.82V255.51ZM257.531 279H249.431V218.79H257.531V279ZM271.367 244.08V270C271.367 271.02 271.547 271.71 271.907 272.07C272.267 272.43 272.987 272.61 274.067 272.61H276.317V279H271.817C268.937 279 266.807 278.34 265.427 277.02C264.107 275.64 263.447 273.66 263.447 271.08V243.09C263.447 240.45 264.107 238.47 265.427 237.15C266.807 235.77 268.937 235.08 271.817 235.08H276.767V241.47H274.067C272.987 241.47 272.267 241.65 271.907 242.01C271.547 242.31 271.367 243 271.367 244.08ZM281.087 258.39V244.08C281.087 243 280.907 242.31 280.547 242.01C280.247 241.65 279.557 241.47 278.477 241.47H275.597V235.08H280.637C283.577 235.08 285.707 235.77 287.027 237.15C288.407 238.47 289.097 240.45 289.097 243.09V258.39H281.087ZM280.907 269.91V266.31H288.827V271.08C288.827 273.66 288.167 275.64 286.847 277.02C285.527 278.34 283.397 279 280.457 279H275.597V272.61H278.207C279.347 272.61 280.067 272.43 280.367 272.07C280.727 271.71 280.907 270.99 280.907 269.91ZM289.097 253.62V259.56H266.327V253.62H289.097ZM309.739 256.5L320.719 279H312.169L305.599 263.79L299.209 279H290.749L301.549 256.59L291.379 235.08H300.019L305.689 249.48L311.269 235.08H319.729L309.739 256.5ZM341.041 264.6V244.17C341.041 243.03 340.861 242.31 340.501 242.01C340.201 241.65 339.481 241.47 338.341 241.47H335.641V235.08H340.681C343.621 235.08 345.751 235.77 347.071 237.15C348.391 238.47 349.051 240.45 349.051 243.09V264.6H341.041ZM341.041 269.91V260.82H349.051V271.08C349.051 273.66 348.391 275.64 347.071 277.02C345.751 278.34 343.621 279 340.681 279H335.191V272.61H338.341C339.481 272.61 340.201 272.43 340.501 272.07C340.861 271.71 341.041 270.99 341.041 269.91ZM330.781 244.17V264.69H322.771V243.09C322.771 240.45 323.431 238.47 324.751 237.15C326.071 235.77 328.171 235.08 331.051 235.08H336.181V241.47H333.481C332.401 241.47 331.681 241.65 331.321 242.01C330.961 242.31 330.781 243.03 330.781 244.17ZM330.781 260.28V269.91C330.781 270.99 330.961 271.71 331.321 272.07C331.681 272.43 332.401 272.61 333.481 272.61H335.911V279H331.051C328.171 279 326.071 278.34 324.751 277.02C323.431 275.64 322.771 273.66 322.771 271.08V260.28H330.781ZM353.651 246.15V235.08H362.741V246.15H353.651ZM353.651 279V267.93H362.741V279H353.651ZM103.678 509.6V489.17C103.678 488.03 103.498 487.31 103.138 487.01C102.838 486.65 102.118 486.47 100.978 486.47H98.2779V480.08H103.318C106.258 480.08 108.388 480.77 109.708 482.15C111.028 483.47 111.688 485.45 111.688 488.09V509.6H103.678ZM103.678 514.91V505.82H111.688V516.08C111.688 518.66 111.028 520.64 109.708 522.02C108.388 523.34 106.258 524 103.318 524H97.8279V517.61H100.978C102.118 517.61 102.838 517.43 103.138 517.07C103.498 516.71 103.678 515.99 103.678 514.91ZM93.4179 489.17V509.69H85.4079V488.09C85.4079 485.45 86.0679 483.47 87.3879 482.15C88.7079 480.77 90.8079 480.08 93.6879 480.08H98.8179V486.47H96.1179C95.0379 486.47 94.3179 486.65 93.9579 487.01C93.5979 487.31 93.4179 488.03 93.4179 489.17ZM93.4179 505.28V514.91C93.4179 515.99 93.5979 516.71 93.9579 517.07C94.3179 517.43 95.0379 517.61 96.1179 517.61H98.5479V524H93.6879C90.8079 524 88.7079 523.34 87.3879 522.02C86.0679 520.64 85.4079 518.66 85.4079 516.08V505.28H93.4179ZM153.596 524H145.496V489.26C145.496 488.18 145.316 487.49 144.956 487.19C144.596 486.83 143.876 486.65 142.796 486.65H139.646C138.626 486.65 137.876 486.89 137.396 487.37C136.916 487.85 136.676 488.66 136.676 489.8V492.68H136.316V486.2C136.316 484.04 136.856 482.48 137.936 481.52C139.016 480.56 140.456 480.08 142.256 480.08H145.496C148.256 480.08 150.296 480.77 151.616 482.15C152.936 483.47 153.596 485.45 153.596 488.09V524ZM136.676 524H128.576V480.08H136.676V485.57V486.11V524ZM170.516 524H162.326V489.26C162.326 488.18 162.146 487.49 161.786 487.19C161.486 486.83 160.796 486.65 159.716 486.65H156.476C155.516 486.65 154.796 486.89 154.316 487.37C153.836 487.85 153.596 488.66 153.596 489.8V492.68H152.876L152.696 486.29C152.636 484.13 153.206 482.57 154.406 481.61C155.666 480.59 157.256 480.08 159.176 480.08H162.326C165.146 480.08 167.216 480.77 168.536 482.15C169.856 483.47 170.516 485.45 170.516 488.09V524ZM183.911 489.08V515C183.911 516.02 184.091 516.71 184.451 517.07C184.811 517.43 185.531 517.61 186.611 517.61H188.861V524H184.361C181.481 524 179.351 523.34 177.971 522.02C176.651 520.64 175.991 518.66 175.991 516.08V488.09C175.991 485.45 176.651 483.47 177.971 482.15C179.351 480.77 181.481 480.08 184.361 480.08H189.311V486.47H186.611C185.531 486.47 184.811 486.65 184.451 487.01C184.091 487.31 183.911 488 183.911 489.08ZM193.631 503.39V489.08C193.631 488 193.451 487.31 193.091 487.01C192.791 486.65 192.101 486.47 191.021 486.47H188.141V480.08H193.181C196.121 480.08 198.251 480.77 199.571 482.15C200.951 483.47 201.641 485.45 201.641 488.09V503.39H193.631ZM193.451 514.91V511.31H201.371V516.08C201.371 518.66 200.711 520.64 199.391 522.02C198.071 523.34 195.941 524 193.001 524H188.141V517.61H190.751C191.891 517.61 192.611 517.43 192.911 517.07C193.271 516.71 193.451 515.99 193.451 514.91ZM201.641 498.62V504.56H178.871V498.62H201.641ZM223.812 479.99V487.1H220.572C216.792 487.1 214.902 489.29 214.902 493.67V495.56H214.542V487.91C214.542 486.65 214.812 485.42 215.352 484.22C215.952 482.96 216.792 481.94 217.872 481.16C219.012 480.38 220.392 479.99 222.012 479.99H223.812ZM214.902 524H206.802V480.08H214.902V488.27V524ZM234.008 489.26V514.82C234.008 515.84 234.188 516.53 234.548 516.89C234.908 517.25 235.628 517.43 236.708 517.43H238.778V524H234.278C231.398 524 229.268 523.34 227.888 522.02C226.568 520.64 225.908 518.66 225.908 516.08V488.09C225.908 485.45 226.568 483.47 227.888 482.15C229.268 480.77 231.398 480.08 234.278 480.08H239.228V486.65H236.708C235.628 486.65 234.908 486.83 234.548 487.19C234.188 487.49 234.008 488.18 234.008 489.26ZM243.278 493.94V489.26C243.278 488.18 243.098 487.49 242.738 487.19C242.378 486.83 241.658 486.65 240.578 486.65H237.968V480.08H242.828C245.768 480.08 247.898 480.77 249.218 482.15C250.598 483.47 251.288 485.45 251.288 488.09V493.94H243.278ZM243.278 514.82V510.14H251.288V516.08C251.288 518.66 250.598 520.64 249.218 522.02C247.898 523.34 245.768 524 242.828 524H237.968V517.43H240.578C241.658 517.43 242.378 517.25 242.738 516.89C243.098 516.53 243.278 515.84 243.278 514.82ZM263.848 503.57H255.748V488.09C255.748 485.45 256.408 483.47 257.728 482.15C259.048 480.77 261.088 480.08 263.848 480.08H267.088C268.888 480.08 270.328 480.56 271.408 481.52C272.488 482.48 273.028 484.04 273.028 486.2V492.23H272.668V489.8C272.668 488.66 272.428 487.85 271.948 487.37C271.468 486.89 270.718 486.65 269.698 486.65H266.548C265.468 486.65 264.748 486.83 264.388 487.19C264.028 487.49 263.848 488.18 263.848 489.26V503.57ZM280.768 524H272.668V486.38V485.75V480.08H280.768V524ZM255.748 500.51H263.848V514.82C263.848 515.84 264.028 516.53 264.388 516.89C264.748 517.25 265.468 517.43 266.548 517.43H269.698C270.718 517.43 271.468 517.22 271.948 516.8C272.428 516.32 272.668 515.48 272.668 514.28V511.94H273.028V517.88C273.028 520.04 272.488 521.6 271.408 522.56C270.328 523.52 268.888 524 267.088 524H263.848C261.088 524 259.048 523.34 257.728 522.02C256.408 520.64 255.748 518.66 255.748 516.08V500.51ZM294.48 503.48H286.38V488C286.38 485.36 287.04 483.38 288.36 482.06C289.68 480.68 291.72 479.99 294.48 479.99H297.72C299.52 479.99 300.96 480.47 302.04 481.43C303.12 482.39 303.66 483.95 303.66 486.11V492.59H303.3V489.71C303.3 488.57 303.06 487.76 302.58 487.28C302.1 486.8 301.35 486.56 300.33 486.56H297.18C296.1 486.56 295.38 486.74 295.02 487.1C294.66 487.4 294.48 488.09 294.48 489.17V503.48ZM303.3 463.79H311.4V524H303.3V518.42V517.97V463.79ZM286.38 500.51H294.48V514.82C294.48 515.84 294.66 516.53 295.02 516.89C295.38 517.25 296.1 517.43 297.18 517.43H300.33C301.35 517.43 302.1 517.22 302.58 516.8C303.06 516.32 303.3 515.48 303.3 514.28V512.21H303.66V517.88C303.66 520.04 303.12 521.6 302.04 522.56C300.96 523.52 299.52 524 297.72 524H294.48C291.72 524 289.68 523.34 288.36 522.02C287.04 520.64 286.38 518.66 286.38 516.08V500.51ZM335.372 509.6V489.17C335.372 488.03 335.192 487.31 334.832 487.01C334.532 486.65 333.812 486.47 332.672 486.47H329.972V480.08H335.012C337.952 480.08 340.082 480.77 341.402 482.15C342.722 483.47 343.382 485.45 343.382 488.09V509.6H335.372ZM335.372 514.91V505.82H343.382V516.08C343.382 518.66 342.722 520.64 341.402 522.02C340.082 523.34 337.952 524 335.012 524H329.522V517.61H332.672C333.812 517.61 334.532 517.43 334.832 517.07C335.192 516.71 335.372 515.99 335.372 514.91ZM325.112 489.17V509.69H317.102V488.09C317.102 485.45 317.762 483.47 319.082 482.15C320.402 480.77 322.502 480.08 325.382 480.08H330.512V486.47H327.812C326.732 486.47 326.012 486.65 325.652 487.01C325.292 487.31 325.112 488.03 325.112 489.17ZM325.112 505.28V514.91C325.112 515.99 325.292 516.71 325.652 517.07C326.012 517.43 326.732 517.61 327.812 517.61H330.242V524H325.382C322.502 524 320.402 523.34 319.082 522.02C317.762 520.64 317.102 518.66 317.102 516.08V505.28H325.112ZM76.7397 604.26V629.82C76.7397 630.84 76.9197 631.53 77.2797 631.89C77.6397 632.25 78.3597 632.43 79.4397 632.43H81.5097V639H77.0097C74.1297 639 71.9997 638.34 70.6197 637.02C69.2997 635.64 68.6397 633.66 68.6397 631.08V603.09C68.6397 600.45 69.2997 598.47 70.6197 597.15C71.9997 595.77 74.1297 595.08 77.0097 595.08H81.9597V601.65H79.4397C78.3597 601.65 77.6397 601.83 77.2797 602.19C76.9197 602.49 76.7397 603.18 76.7397 604.26ZM86.0097 608.94V604.26C86.0097 603.18 85.8297 602.49 85.4697 602.19C85.1097 601.83 84.3897 601.65 83.3097 601.65H80.6997V595.08H85.5597C88.4997 595.08 90.6297 595.77 91.9497 597.15C93.3297 598.47 94.0197 600.45 94.0197 603.09V608.94H86.0097ZM86.0097 629.82V625.14H94.0197V631.08C94.0197 633.66 93.3297 635.64 91.9497 637.02C90.6297 638.34 88.4997 639 85.5597 639H80.6997V632.43H83.3097C84.3897 632.43 85.1097 632.25 85.4697 631.89C85.8297 631.53 86.0097 630.84 86.0097 629.82ZM116.84 624.6V604.17C116.84 603.03 116.66 602.31 116.3 602.01C116 601.65 115.28 601.47 114.14 601.47H111.44V595.08H116.48C119.42 595.08 121.55 595.77 122.87 597.15C124.19 598.47 124.85 600.45 124.85 603.09V624.6H116.84ZM116.84 629.91V620.82H124.85V631.08C124.85 633.66 124.19 635.64 122.87 637.02C121.55 638.34 119.42 639 116.48 639H110.99V632.61H114.14C115.28 632.61 116 632.43 116.3 632.07C116.66 631.71 116.84 630.99 116.84 629.91ZM106.58 604.17V624.69H98.5703V603.09C98.5703 600.45 99.2303 598.47 100.55 597.15C101.87 595.77 103.97 595.08 106.85 595.08H111.98V601.47H109.28C108.2 601.47 107.48 601.65 107.12 602.01C106.76 602.31 106.58 603.03 106.58 604.17ZM106.58 620.28V629.91C106.58 630.99 106.76 631.71 107.12 632.07C107.48 632.43 108.2 632.61 109.28 632.61H111.71V639H106.85C103.97 639 101.87 638.34 100.55 637.02C99.2303 635.64 98.5703 633.66 98.5703 631.08V620.28H106.58ZM155.551 639H147.451V604.26C147.451 603.18 147.271 602.49 146.911 602.19C146.551 601.83 145.831 601.65 144.751 601.65H141.601C140.581 601.65 139.831 601.89 139.351 602.37C138.871 602.85 138.631 603.66 138.631 604.8V607.68H138.271V601.2C138.271 599.04 138.811 597.48 139.891 596.52C140.971 595.56 142.411 595.08 144.211 595.08H147.451C150.211 595.08 152.251 595.77 153.571 597.15C154.891 598.47 155.551 600.45 155.551 603.09V639ZM138.631 639H130.531V595.08H138.631V600.57V601.11V639ZM172.471 639H164.281V604.26C164.281 603.18 164.101 602.49 163.741 602.19C163.441 601.83 162.751 601.65 161.671 601.65H158.431C157.471 601.65 156.751 601.89 156.271 602.37C155.791 602.85 155.551 603.66 155.551 604.8V607.68H154.831L154.651 601.29C154.591 599.13 155.161 597.57 156.361 596.61C157.621 595.59 159.211 595.08 161.131 595.08H164.281C167.101 595.08 169.171 595.77 170.491 597.15C171.811 598.47 172.471 600.45 172.471 603.09V639ZM197.433 639H189.333V595.08H197.433V600.57V601.11V639ZM214.353 639H206.253V604.26C206.253 603.18 206.073 602.49 205.713 602.19C205.353 601.83 204.633 601.65 203.553 601.65H200.403C199.383 601.65 198.633 601.89 198.153 602.37C197.673 602.85 197.433 603.66 197.433 604.8V607.68H197.073V601.2C197.073 599.04 197.613 597.48 198.693 596.52C199.773 595.56 201.213 595.08 203.013 595.08H206.253C209.013 595.08 211.053 595.77 212.373 597.15C213.693 598.47 214.353 600.45 214.353 603.09V639ZM238.224 624.6V604.17C238.224 603.03 238.044 602.31 237.684 602.01C237.384 601.65 236.664 601.47 235.524 601.47H232.824V595.08H237.864C240.804 595.08 242.934 595.77 244.254 597.15C245.574 598.47 246.234 600.45 246.234 603.09V624.6H238.224ZM238.224 629.91V620.82H246.234V631.08C246.234 633.66 245.574 635.64 244.254 637.02C242.934 638.34 240.804 639 237.864 639H232.374V632.61H235.524C236.664 632.61 237.384 632.43 237.684 632.07C238.044 631.71 238.224 630.99 238.224 629.91ZM227.964 604.17V624.69H219.954V603.09C219.954 600.45 220.614 598.47 221.934 597.15C223.254 595.77 225.354 595.08 228.234 595.08H233.364V601.47H230.664C229.584 601.47 228.864 601.65 228.504 602.01C228.144 602.31 227.964 603.03 227.964 604.17ZM227.964 620.28V629.91C227.964 630.99 228.144 631.71 228.504 632.07C228.864 632.43 229.584 632.61 230.664 632.61H233.094V639H228.234C225.354 639 223.254 638.34 221.934 637.02C220.614 635.64 219.954 633.66 219.954 631.08V620.28H227.964ZM266.585 630.18V622.89C266.585 621.81 266.405 621.12 266.045 620.82C265.745 620.46 265.025 620.28 263.885 620.28H259.295C256.355 620.28 254.225 619.62 252.905 618.3C251.585 616.92 250.925 614.94 250.925 612.36V603.09C250.925 600.45 251.585 598.47 252.905 597.15C254.285 595.77 256.415 595.08 259.295 595.08H265.865C268.805 595.08 270.935 595.77 272.255 597.15C273.635 598.47 274.325 600.45 274.325 603.09V607.32H266.405V603.9C266.405 602.82 266.225 602.13 265.865 601.83C265.565 601.47 264.845 601.29 263.705 601.29H261.545C260.465 601.29 259.745 601.47 259.385 601.83C259.025 602.13 258.845 602.82 258.845 603.9V611.46C258.845 612.54 259.025 613.26 259.385 613.62C259.745 613.92 260.465 614.07 261.545 614.07H266.225C269.105 614.07 271.205 614.76 272.525 616.14C273.845 617.46 274.505 619.44 274.505 622.08V631.08C274.505 633.66 273.815 635.64 272.435 637.02C271.115 638.34 269.015 639 266.135 639H259.475C256.595 639 254.465 638.34 253.085 637.02C251.765 635.64 251.105 633.66 251.105 631.08V626.76H259.115V630.18C259.115 631.2 259.295 631.89 259.655 632.25C260.015 632.61 260.705 632.79 261.725 632.79H263.885C265.025 632.79 265.745 632.61 266.045 632.25C266.405 631.89 266.585 631.2 266.585 630.18ZM294.316 630.18V622.89C294.316 621.81 294.136 621.12 293.776 620.82C293.476 620.46 292.756 620.28 291.616 620.28H287.026C284.086 620.28 281.956 619.62 280.636 618.3C279.316 616.92 278.656 614.94 278.656 612.36V603.09C278.656 600.45 279.316 598.47 280.636 597.15C282.016 595.77 284.146 595.08 287.026 595.08H293.596C296.536 595.08 298.666 595.77 299.986 597.15C301.366 598.47 302.056 600.45 302.056 603.09V607.32H294.136V603.9C294.136 602.82 293.956 602.13 293.596 601.83C293.296 601.47 292.576 601.29 291.436 601.29H289.276C288.196 601.29 287.476 601.47 287.116 601.83C286.756 602.13 286.576 602.82 286.576 603.9V611.46C286.576 612.54 286.756 613.26 287.116 613.62C287.476 613.92 288.196 614.07 289.276 614.07H293.956C296.836 614.07 298.936 614.76 300.256 616.14C301.576 617.46 302.236 619.44 302.236 622.08V631.08C302.236 633.66 301.546 635.64 300.166 637.02C298.846 638.34 296.746 639 293.866 639H287.206C284.326 639 282.196 638.34 280.816 637.02C279.496 635.64 278.836 633.66 278.836 631.08V626.76H286.846V630.18C286.846 631.2 287.026 631.89 287.386 632.25C287.746 632.61 288.436 632.79 289.456 632.79H291.616C292.756 632.79 293.476 632.61 293.776 632.25C294.136 631.89 294.316 631.2 294.316 630.18ZM314.937 618.57H306.837V603.09C306.837 600.45 307.497 598.47 308.817 597.15C310.137 595.77 312.177 595.08 314.937 595.08H318.177C319.977 595.08 321.417 595.56 322.497 596.52C323.577 597.48 324.117 599.04 324.117 601.2V607.23H323.757V604.8C323.757 603.66 323.517 602.85 323.037 602.37C322.557 601.89 321.807 601.65 320.787 601.65H317.637C316.557 601.65 315.837 601.83 315.477 602.19C315.117 602.49 314.937 603.18 314.937 604.26V618.57ZM331.857 639H323.757V601.38V600.75V595.08H331.857V639ZM306.837 615.51H314.937V629.82C314.937 630.84 315.117 631.53 315.477 631.89C315.837 632.25 316.557 632.43 317.637 632.43H320.787C321.807 632.43 322.557 632.22 323.037 631.8C323.517 631.32 323.757 630.48 323.757 629.28V626.94H324.117V632.88C324.117 635.04 323.577 636.6 322.497 637.56C321.417 638.52 319.977 639 318.177 639H314.937C312.177 639 310.137 638.34 308.817 637.02C307.497 635.64 306.837 633.66 306.837 631.08V615.51ZM352.679 630.18V622.89C352.679 621.81 352.499 621.12 352.139 620.82C351.839 620.46 351.119 620.28 349.979 620.28H345.389C342.449 620.28 340.319 619.62 338.999 618.3C337.679 616.92 337.019 614.94 337.019 612.36V603.09C337.019 600.45 337.679 598.47 338.999 597.15C340.379 595.77 342.509 595.08 345.389 595.08H351.959C354.899 595.08 357.029 595.77 358.349 597.15C359.729 598.47 360.419 600.45 360.419 603.09V607.32H352.499V603.9C352.499 602.82 352.319 602.13 351.959 601.83C351.659 601.47 350.939 601.29 349.799 601.29H347.639C346.559 601.29 345.839 601.47 345.479 601.83C345.119 602.13 344.939 602.82 344.939 603.9V611.46C344.939 612.54 345.119 613.26 345.479 613.62C345.839 613.92 346.559 614.07 347.639 614.07H352.319C355.199 614.07 357.299 614.76 358.619 616.14C359.939 617.46 360.599 619.44 360.599 622.08V631.08C360.599 633.66 359.909 635.64 358.529 637.02C357.209 638.34 355.109 639 352.229 639H345.569C342.689 639 340.559 638.34 339.179 637.02C337.859 635.64 337.199 633.66 337.199 631.08V626.76H345.209V630.18C345.209 631.2 345.389 631.89 345.749 632.25C346.109 632.61 346.799 632.79 347.819 632.79H349.979C351.119 632.79 351.839 632.61 352.139 632.25C352.499 631.89 352.679 631.2 352.679 630.18ZM114.183 733.57H106.083V718.09C106.083 715.45 106.743 713.47 108.063 712.15C109.383 710.77 111.423 710.08 114.183 710.08H117.423C119.223 710.08 120.663 710.56 121.743 711.52C122.823 712.48 123.363 714.04 123.363 716.2V722.23H123.003V719.8C123.003 718.66 122.763 717.85 122.283 717.37C121.803 716.89 121.053 716.65 120.033 716.65H116.883C115.803 716.65 115.083 716.83 114.723 717.19C114.363 717.49 114.183 718.18 114.183 719.26V733.57ZM131.103 754H123.003V716.38V715.75V710.08H131.103V754ZM106.083 730.51H114.183V744.82C114.183 745.84 114.363 746.53 114.723 746.89C115.083 747.25 115.803 747.43 116.883 747.43H120.033C121.053 747.43 121.803 747.22 122.283 746.8C122.763 746.32 123.003 745.48 123.003 744.28V741.94H123.363V747.88C123.363 750.04 122.823 751.6 121.743 752.56C120.663 753.52 119.223 754 117.423 754H114.183C111.423 754 109.383 753.34 108.063 752.02C106.743 750.64 106.083 748.66 106.083 746.08V730.51ZM145.355 754H137.255V710.08H145.355V715.57V716.11V754ZM162.275 754H154.175V719.26C154.175 718.18 153.995 717.49 153.635 717.19C153.275 716.83 152.555 716.65 151.475 716.65H148.325C147.305 716.65 146.555 716.89 146.075 717.37C145.595 717.85 145.355 718.66 145.355 719.8V722.68H144.995V716.2C144.995 714.04 145.535 712.48 146.615 711.52C147.695 710.56 149.135 710.08 150.935 710.08H154.175C156.935 710.08 158.975 710.77 160.295 712.15C161.615 713.47 162.275 715.45 162.275 718.09V754ZM175.886 733.57H167.786V718.09C167.786 715.45 168.446 713.47 169.766 712.15C171.086 710.77 173.126 710.08 175.886 710.08H179.126C180.926 710.08 182.366 710.56 183.446 711.52C184.526 712.48 185.066 714.04 185.066 716.2V722.23H184.706V719.8C184.706 718.66 184.466 717.85 183.986 717.37C183.506 716.89 182.756 716.65 181.736 716.65H178.586C177.506 716.65 176.786 716.83 176.426 717.19C176.066 717.49 175.886 718.18 175.886 719.26V733.57ZM192.806 754H184.706V716.38V715.75V710.08H192.806V754ZM167.786 730.51H175.886V744.82C175.886 745.84 176.066 746.53 176.426 746.89C176.786 747.25 177.506 747.43 178.586 747.43H181.736C182.756 747.43 183.506 747.22 183.986 746.8C184.466 746.32 184.706 745.48 184.706 744.28V741.94H185.066V747.88C185.066 750.04 184.526 751.6 183.446 752.56C182.366 753.52 180.926 754 179.126 754H175.886C173.126 754 171.086 753.34 169.766 752.02C168.446 750.64 167.786 748.66 167.786 746.08V730.51ZM177.506 707.29L184.886 695.41H193.886L184.436 707.29H177.506ZM207.057 754H198.957V693.79H207.057V754ZM221.253 754H213.153V710.08H221.253V754ZM212.973 701.71V693.7H221.433V701.71H212.973ZM242.019 745.18V737.89C242.019 736.81 241.839 736.12 241.479 735.82C241.179 735.46 240.459 735.28 239.319 735.28H234.729C231.789 735.28 229.659 734.62 228.339 733.3C227.019 731.92 226.359 729.94 226.359 727.36V718.09C226.359 715.45 227.019 713.47 228.339 712.15C229.719 710.77 231.849 710.08 234.729 710.08H241.299C244.239 710.08 246.369 710.77 247.689 712.15C249.069 713.47 249.759 715.45 249.759 718.09V722.32H241.839V718.9C241.839 717.82 241.659 717.13 241.299 716.83C240.999 716.47 240.279 716.29 239.139 716.29H236.979C235.899 716.29 235.179 716.47 234.819 716.83C234.459 717.13 234.279 717.82 234.279 718.9V726.46C234.279 727.54 234.459 728.26 234.819 728.62C235.179 728.92 235.899 729.07 236.979 729.07H241.659C244.539 729.07 246.639 729.76 247.959 731.14C249.279 732.46 249.939 734.44 249.939 737.08V746.08C249.939 748.66 249.249 750.64 247.869 752.02C246.549 753.34 244.449 754 241.569 754H234.909C232.029 754 229.899 753.34 228.519 752.02C227.199 750.64 226.539 748.66 226.539 746.08V741.76H234.549V745.18C234.549 746.2 234.729 746.89 235.089 747.25C235.449 747.61 236.139 747.79 237.159 747.79H239.319C240.459 747.79 241.179 747.61 241.479 747.25C241.839 746.89 242.019 746.2 242.019 745.18ZM262.821 719.08V745C262.821 746.02 263.001 746.71 263.361 747.07C263.721 747.43 264.441 747.61 265.521 747.61H267.771V754H263.271C260.391 754 258.261 753.34 256.881 752.02C255.561 750.64 254.901 748.66 254.901 746.08V718.09C254.901 715.45 255.561 713.47 256.881 712.15C258.261 710.77 260.391 710.08 263.271 710.08H268.221V716.47H265.521C264.441 716.47 263.721 716.65 263.361 717.01C263.001 717.31 262.821 718 262.821 719.08ZM272.541 733.39V719.08C272.541 718 272.361 717.31 272.001 717.01C271.701 716.65 271.011 716.47 269.931 716.47H267.051V710.08H272.091C275.031 710.08 277.161 710.77 278.481 712.15C279.861 713.47 280.551 715.45 280.551 718.09V733.39H272.541ZM272.361 744.91V741.31H280.281V746.08C280.281 748.66 279.621 750.64 278.301 752.02C276.981 753.34 274.851 754 271.911 754H267.051V747.61H269.661C270.801 747.61 271.521 747.43 271.821 747.07C272.181 746.71 272.361 745.99 272.361 744.91ZM280.551 728.62V734.56H257.781V728.62H280.551ZM300.382 745.18V737.89C300.382 736.81 300.202 736.12 299.842 735.82C299.542 735.46 298.822 735.28 297.682 735.28H293.092C290.152 735.28 288.022 734.62 286.702 733.3C285.382 731.92 284.722 729.94 284.722 727.36V718.09C284.722 715.45 285.382 713.47 286.702 712.15C288.082 710.77 290.212 710.08 293.092 710.08H299.662C302.602 710.08 304.732 710.77 306.052 712.15C307.432 713.47 308.122 715.45 308.122 718.09V722.32H300.202V718.9C300.202 717.82 300.022 717.13 299.662 716.83C299.362 716.47 298.642 716.29 297.502 716.29H295.342C294.262 716.29 293.542 716.47 293.182 716.83C292.822 717.13 292.642 717.82 292.642 718.9V726.46C292.642 727.54 292.822 728.26 293.182 728.62C293.542 728.92 294.262 729.07 295.342 729.07H300.022C302.902 729.07 305.002 729.76 306.322 731.14C307.642 732.46 308.302 734.44 308.302 737.08V746.08C308.302 748.66 307.612 750.64 306.232 752.02C304.912 753.34 302.812 754 299.932 754H293.272C290.392 754 288.262 753.34 286.882 752.02C285.562 750.64 284.902 748.66 284.902 746.08V741.76H292.912V745.18C292.912 746.2 293.092 746.89 293.452 747.25C293.812 747.61 294.502 747.79 295.522 747.79H297.682C298.822 747.79 299.542 747.61 299.842 747.25C300.202 746.89 300.382 746.2 300.382 745.18ZM312.364 754V742.93H321.454V754H312.364Z" fill="#A1A1A1"/>
</svg>
