<svg width="1038" height="1119" viewBox="0 0 1038 1119" fill="none" xmlns="http://www.w3.org/2000/svg">
<g filter="url(#filter0_f_246_101)">
<ellipse cx="626.5" cy="559.5" rx="267.5" ry="200.5" fill="#6BC6C1" fill-opacity="0.6"/>
</g>
<path d="M476.918 505H472.645C472.327 503.409 471.751 501.939 470.918 500.591C470.099 499.227 469.069 498.038 467.827 497.023C466.584 496.008 465.175 495.22 463.599 494.659C462.024 494.098 460.319 493.818 458.486 493.818C455.546 493.818 452.865 494.583 450.44 496.114C448.031 497.644 446.099 499.894 444.645 502.864C443.205 505.818 442.486 509.439 442.486 513.727C442.486 518.045 443.205 521.682 444.645 524.636C446.099 527.591 448.031 529.833 450.44 531.364C452.865 532.879 455.546 533.636 458.486 533.636C460.319 533.636 462.024 533.356 463.599 532.795C465.175 532.235 466.584 531.455 467.827 530.455C469.069 529.439 470.099 528.25 470.918 526.886C471.751 525.523 472.327 524.045 472.645 522.455H476.918C476.539 524.591 475.827 526.583 474.781 528.432C473.751 530.265 472.433 531.871 470.827 533.25C469.236 534.629 467.402 535.705 465.327 536.477C463.251 537.25 460.971 537.636 458.486 537.636C454.577 537.636 451.107 536.659 448.077 534.705C445.046 532.735 442.668 529.962 440.94 526.386C439.228 522.811 438.372 518.591 438.372 513.727C438.372 508.864 439.228 504.644 440.94 501.068C442.668 497.492 445.046 494.727 448.077 492.773C451.107 490.803 454.577 489.818 458.486 489.818C460.971 489.818 463.251 490.205 465.327 490.977C467.402 491.735 469.236 492.811 470.827 494.205C472.433 495.583 473.751 497.189 474.781 499.023C475.827 500.856 476.539 502.848 476.918 505ZM490.105 490.455V537H486.06V490.455H490.105ZM500.855 537V502.091H504.923V537H500.855ZM502.923 496.091C502.09 496.091 501.378 495.811 500.787 495.25C500.196 494.674 499.901 493.985 499.901 493.182C499.901 492.379 500.196 491.697 500.787 491.136C501.378 490.561 502.09 490.273 502.923 490.273C503.757 490.273 504.469 490.561 505.06 491.136C505.651 491.697 505.946 492.379 505.946 493.182C505.946 493.985 505.651 494.674 505.06 495.25C504.469 495.811 503.757 496.091 502.923 496.091ZM539.281 550.091V530.523H538.918C538.448 531.583 537.781 532.674 536.918 533.795C536.054 534.902 534.91 535.833 533.486 536.591C532.062 537.348 530.296 537.727 528.19 537.727C525.342 537.727 522.834 536.97 520.668 535.455C518.516 533.939 516.834 531.826 515.622 529.114C514.425 526.402 513.827 523.242 513.827 519.636C513.827 516.045 514.425 512.902 515.622 510.205C516.834 507.492 518.524 505.386 520.69 503.886C522.857 502.371 525.38 501.614 528.259 501.614C530.395 501.614 532.16 501.992 533.554 502.75C534.963 503.508 536.092 504.439 536.94 505.545C537.789 506.636 538.448 507.705 538.918 508.75H539.395V502.091H543.349V550.091H539.281ZM528.668 534.023C530.925 534.023 532.849 533.409 534.44 532.182C536.031 530.939 537.243 529.235 538.077 527.068C538.925 524.886 539.349 522.386 539.349 519.568C539.349 516.78 538.933 514.318 538.099 512.182C537.266 510.03 536.054 508.348 534.463 507.136C532.887 505.909 530.955 505.295 528.668 505.295C526.334 505.295 524.365 505.932 522.759 507.205C521.152 508.462 519.94 510.167 519.122 512.318C518.304 514.47 517.895 516.886 517.895 519.568C517.895 522.28 518.312 524.727 519.145 526.909C519.978 529.091 521.198 530.826 522.804 532.114C524.41 533.386 526.365 534.023 528.668 534.023ZM576.179 523.659V502.091H580.224V537H576.179V531.205H575.861C575.043 532.992 573.747 534.485 571.974 535.682C570.202 536.864 568.035 537.455 565.474 537.455C563.247 537.455 561.27 536.97 559.543 536C557.815 535.015 556.459 533.576 555.474 531.682C554.49 529.788 553.997 527.462 553.997 524.705V502.091H558.043V524.455C558.043 527.182 558.846 529.379 560.452 531.045C562.058 532.697 564.118 533.523 566.634 533.523C568.209 533.523 569.724 533.144 571.179 532.386C572.634 531.629 573.83 530.523 574.77 529.068C575.709 527.598 576.179 525.795 576.179 523.659ZM605.048 537.727C601.791 537.727 598.973 536.97 596.594 535.455C594.215 533.924 592.374 531.811 591.071 529.114C589.783 526.402 589.139 523.28 589.139 519.75C589.139 516.235 589.783 513.114 591.071 510.386C592.374 507.644 594.17 505.5 596.457 503.955C598.76 502.394 601.42 501.614 604.435 501.614C606.329 501.614 608.154 501.962 609.912 502.659C611.67 503.341 613.245 504.394 614.639 505.818C616.048 507.227 617.162 509.008 617.98 511.159C618.798 513.295 619.207 515.826 619.207 518.75V520.75H591.935V517.182H615.071C615.071 514.939 614.616 512.924 613.707 511.136C612.813 509.333 611.563 507.909 609.957 506.864C608.366 505.818 606.526 505.295 604.435 505.295C602.223 505.295 600.276 505.886 598.594 507.068C596.912 508.25 595.594 509.811 594.639 511.75C593.7 513.689 593.223 515.811 593.207 518.114V520.25C593.207 523.023 593.685 525.447 594.639 527.523C595.609 529.583 596.98 531.182 598.753 532.318C600.526 533.455 602.624 534.023 605.048 534.023C606.7 534.023 608.147 533.765 609.389 533.25C610.647 532.735 611.7 532.045 612.548 531.182C613.412 530.303 614.063 529.341 614.503 528.295L618.344 529.545C617.813 531.015 616.942 532.371 615.73 533.614C614.533 534.856 613.033 535.856 611.23 536.614C609.442 537.356 607.382 537.727 605.048 537.727ZM655.872 537.795C653.766 537.795 651.842 537.386 650.099 536.568C648.357 535.735 646.971 534.538 645.94 532.977C644.91 531.402 644.395 529.492 644.395 527.25C644.395 525.523 644.721 524.068 645.372 522.886C646.024 521.705 646.948 520.735 648.145 519.977C649.342 519.22 650.759 518.621 652.395 518.182C654.031 517.742 655.834 517.402 657.804 517.159C659.759 516.917 661.41 516.705 662.759 516.523C664.122 516.341 665.16 516.053 665.872 515.659C666.584 515.265 666.94 514.629 666.94 513.75V512.932C666.94 510.553 666.228 508.682 664.804 507.318C663.395 505.939 661.365 505.25 658.713 505.25C656.198 505.25 654.145 505.803 652.554 506.909C650.978 508.015 649.872 509.318 649.236 510.818L645.395 509.432C646.183 507.523 647.274 506 648.668 504.864C650.062 503.712 651.622 502.886 653.349 502.386C655.077 501.871 656.827 501.614 658.599 501.614C659.933 501.614 661.319 501.788 662.759 502.136C664.213 502.485 665.562 503.091 666.804 503.955C668.046 504.803 669.054 505.992 669.827 507.523C670.599 509.038 670.986 510.962 670.986 513.295V537H666.94V531.477H666.69C666.205 532.508 665.486 533.508 664.531 534.477C663.577 535.447 662.38 536.242 660.94 536.864C659.501 537.485 657.812 537.795 655.872 537.795ZM656.418 534.091C658.569 534.091 660.433 533.614 662.009 532.659C663.584 531.705 664.796 530.439 665.645 528.864C666.509 527.273 666.94 525.523 666.94 523.614V518.568C666.637 518.856 666.13 519.114 665.418 519.341C664.721 519.568 663.91 519.773 662.986 519.955C662.077 520.121 661.168 520.265 660.259 520.386C659.349 520.508 658.531 520.614 657.804 520.705C655.834 520.947 654.152 521.326 652.759 521.841C651.365 522.356 650.296 523.068 649.554 523.977C648.812 524.871 648.44 526.023 648.44 527.432C648.44 529.553 649.198 531.197 650.713 532.364C652.228 533.515 654.13 534.091 656.418 534.091ZM705.406 550.091V530.523H705.043C704.573 531.583 703.906 532.674 703.043 533.795C702.179 534.902 701.035 535.833 699.611 536.591C698.187 537.348 696.421 537.727 694.315 537.727C691.467 537.727 688.959 536.97 686.793 535.455C684.641 533.939 682.959 531.826 681.747 529.114C680.55 526.402 679.952 523.242 679.952 519.636C679.952 516.045 680.55 512.902 681.747 510.205C682.959 507.492 684.649 505.386 686.815 503.886C688.982 502.371 691.505 501.614 694.384 501.614C696.52 501.614 698.285 501.992 699.679 502.75C701.088 503.508 702.217 504.439 703.065 505.545C703.914 506.636 704.573 507.705 705.043 508.75H705.52V502.091H709.474V550.091H705.406ZM694.793 534.023C697.05 534.023 698.974 533.409 700.565 532.182C702.156 530.939 703.368 529.235 704.202 527.068C705.05 524.886 705.474 522.386 705.474 519.568C705.474 516.78 705.058 514.318 704.224 512.182C703.391 510.03 702.179 508.348 700.588 507.136C699.012 505.909 697.08 505.295 694.793 505.295C692.459 505.295 690.49 505.932 688.884 507.205C687.277 508.462 686.065 510.167 685.247 512.318C684.429 514.47 684.02 516.886 684.02 519.568C684.02 522.28 684.437 524.727 685.27 526.909C686.103 529.091 687.323 530.826 688.929 532.114C690.535 533.386 692.49 534.023 694.793 534.023ZM742.304 523.659V502.091H746.349V537H742.304V531.205H741.986C741.168 532.992 739.872 534.485 738.099 535.682C736.327 536.864 734.16 537.455 731.599 537.455C729.372 537.455 727.395 536.97 725.668 536C723.94 535.015 722.584 533.576 721.599 531.682C720.615 529.788 720.122 527.462 720.122 524.705V502.091H724.168V524.455C724.168 527.182 724.971 529.379 726.577 531.045C728.183 532.697 730.243 533.523 732.759 533.523C734.334 533.523 735.849 533.144 737.304 532.386C738.759 531.629 739.955 530.523 740.895 529.068C741.834 527.598 742.304 525.795 742.304 523.659ZM757.105 537V502.091H761.173V537H757.105ZM759.173 496.091C758.34 496.091 757.628 495.811 757.037 495.25C756.446 494.674 756.151 493.985 756.151 493.182C756.151 492.379 756.446 491.697 757.037 491.136C757.628 490.561 758.34 490.273 759.173 490.273C760.007 490.273 760.719 490.561 761.31 491.136C761.901 491.697 762.196 492.379 762.196 493.182C762.196 493.985 761.901 494.674 761.31 495.25C760.719 495.811 760.007 496.091 759.173 496.091ZM803.986 537.727C800.728 537.727 797.91 536.97 795.531 535.455C793.152 533.924 791.312 531.811 790.009 529.114C788.721 526.402 788.077 523.28 788.077 519.75C788.077 516.235 788.721 513.114 790.009 510.386C791.312 507.644 793.107 505.5 795.395 503.955C797.698 502.394 800.357 501.614 803.372 501.614C805.266 501.614 807.092 501.962 808.849 502.659C810.607 503.341 812.183 504.394 813.577 505.818C814.986 507.227 816.099 509.008 816.918 511.159C817.736 513.295 818.145 515.826 818.145 518.75V520.75H790.872V517.182H814.009C814.009 514.939 813.554 512.924 812.645 511.136C811.751 509.333 810.501 507.909 808.895 506.864C807.304 505.818 805.463 505.295 803.372 505.295C801.16 505.295 799.213 505.886 797.531 507.068C795.849 508.25 794.531 509.811 793.577 511.75C792.637 513.689 792.16 515.811 792.145 518.114V520.25C792.145 523.023 792.622 525.447 793.577 527.523C794.546 529.583 795.918 531.182 797.69 532.318C799.463 533.455 801.562 534.023 803.986 534.023C805.637 534.023 807.084 533.765 808.327 533.25C809.584 532.735 810.637 532.045 811.486 531.182C812.349 530.303 813.001 529.341 813.44 528.295L817.281 529.545C816.751 531.015 815.88 532.371 814.668 533.614C813.471 534.856 811.971 535.856 810.168 536.614C808.38 537.356 806.319 537.727 803.986 537.727ZM446.835 599.318H435.472C435.32 598.152 435.009 597.098 434.54 596.159C434.07 595.22 433.449 594.417 432.676 593.75C431.903 593.083 430.987 592.576 429.926 592.227C428.881 591.864 427.722 591.682 426.449 591.682C424.191 591.682 422.244 592.235 420.608 593.341C418.987 594.447 417.737 596.045 416.858 598.136C415.994 600.227 415.562 602.758 415.562 605.727C415.562 608.818 416.002 611.409 416.881 613.5C417.775 615.576 419.025 617.144 420.631 618.205C422.252 619.25 424.169 619.773 426.381 619.773C427.623 619.773 428.752 619.614 429.767 619.295C430.797 618.977 431.699 618.515 432.472 617.909C433.259 617.288 433.903 616.538 434.403 615.659C434.919 614.765 435.275 613.758 435.472 612.636L446.835 612.705C446.638 614.765 446.04 616.795 445.04 618.795C444.055 620.795 442.699 622.621 440.972 624.273C439.244 625.909 437.138 627.212 434.653 628.182C432.184 629.152 429.35 629.636 426.153 629.636C421.941 629.636 418.169 628.712 414.835 626.864C411.517 625 408.896 622.288 406.972 618.727C405.047 615.167 404.085 610.833 404.085 605.727C404.085 600.606 405.062 596.265 407.017 592.705C408.972 589.144 411.616 586.439 414.949 584.591C418.282 582.742 422.017 581.818 426.153 581.818C428.972 581.818 431.578 582.212 433.972 583C436.366 583.773 438.472 584.909 440.29 586.409C442.108 587.894 443.585 589.72 444.722 591.886C445.858 594.053 446.562 596.53 446.835 599.318ZM469.568 629.659C465.902 629.659 462.75 628.909 460.114 627.409C457.492 625.894 455.47 623.788 454.045 621.091C452.636 618.379 451.932 615.235 451.932 611.659C451.932 608.068 452.636 604.924 454.045 602.227C455.47 599.515 457.492 597.409 460.114 595.909C462.75 594.394 465.902 593.636 469.568 593.636C473.235 593.636 476.379 594.394 479 595.909C481.636 597.409 483.659 599.515 485.068 602.227C486.492 604.924 487.205 608.068 487.205 611.659C487.205 615.235 486.492 618.379 485.068 621.091C483.659 623.788 481.636 625.894 479 627.409C476.379 628.909 473.235 629.659 469.568 629.659ZM469.636 621.273C470.97 621.273 472.098 620.864 473.023 620.045C473.947 619.227 474.652 618.091 475.136 616.636C475.636 615.182 475.886 613.5 475.886 611.591C475.886 609.652 475.636 607.955 475.136 606.5C474.652 605.045 473.947 603.909 473.023 603.091C472.098 602.273 470.97 601.864 469.636 601.864C468.258 601.864 467.091 602.273 466.136 603.091C465.197 603.909 464.477 605.045 463.977 606.5C463.492 607.955 463.25 609.652 463.25 611.591C463.25 613.5 463.492 615.182 463.977 616.636C464.477 618.091 465.197 619.227 466.136 620.045C467.091 620.864 468.258 621.273 469.636 621.273ZM492.898 629V594.091H503.466V600.5H503.852C504.58 598.379 505.807 596.705 507.534 595.477C509.261 594.25 511.322 593.636 513.716 593.636C516.14 593.636 518.216 594.258 519.943 595.5C521.67 596.742 522.769 598.409 523.239 600.5H523.602C524.254 598.424 525.527 596.765 527.42 595.523C529.314 594.265 531.549 593.636 534.125 593.636C537.428 593.636 540.11 594.697 542.17 596.818C544.231 598.924 545.261 601.818 545.261 605.5V629H534.148V608.045C534.148 606.303 533.701 604.977 532.807 604.068C531.913 603.144 530.754 602.682 529.33 602.682C527.799 602.682 526.595 603.182 525.716 604.182C524.852 605.167 524.42 606.492 524.42 608.159V629H513.739V607.932C513.739 606.311 513.299 605.03 512.42 604.091C511.542 603.152 510.383 602.682 508.943 602.682C507.973 602.682 507.117 602.917 506.375 603.386C505.633 603.841 505.049 604.492 504.625 605.341C504.216 606.189 504.011 607.189 504.011 608.341V629H492.898ZM568.466 629.659C564.814 629.659 561.663 628.939 559.011 627.5C556.375 626.045 554.345 623.977 552.92 621.295C551.511 618.598 550.807 615.394 550.807 611.682C550.807 608.076 551.519 604.924 552.943 602.227C554.367 599.515 556.375 597.409 558.966 595.909C561.557 594.394 564.61 593.636 568.125 593.636C570.61 593.636 572.883 594.023 574.943 594.795C577.004 595.568 578.784 596.712 580.284 598.227C581.784 599.742 582.951 601.614 583.784 603.841C584.617 606.053 585.034 608.591 585.034 611.455V614.227H554.693V607.773H574.693C574.678 606.591 574.398 605.538 573.852 604.614C573.307 603.689 572.557 602.97 571.602 602.455C570.663 601.924 569.58 601.659 568.352 601.659C567.11 601.659 565.996 601.939 565.011 602.5C564.027 603.045 563.246 603.795 562.67 604.75C562.095 605.689 561.792 606.758 561.761 607.955V614.523C561.761 615.947 562.042 617.197 562.602 618.273C563.163 619.333 563.958 620.159 564.989 620.75C566.019 621.341 567.246 621.636 568.67 621.636C569.655 621.636 570.549 621.5 571.352 621.227C572.155 620.955 572.845 620.553 573.42 620.023C573.996 619.492 574.428 618.841 574.716 618.068L584.92 618.364C584.496 620.652 583.564 622.644 582.125 624.341C580.701 626.023 578.83 627.333 576.511 628.273C574.193 629.197 571.511 629.659 568.466 629.659ZM607.006 629.659C603.324 629.659 600.165 628.902 597.528 627.386C594.907 625.871 592.892 623.765 591.483 621.068C590.074 618.356 589.369 615.22 589.369 611.659C589.369 608.083 590.074 604.947 591.483 602.25C592.907 599.538 594.93 597.424 597.551 595.909C600.188 594.394 603.331 593.636 606.983 593.636C610.21 593.636 613.021 594.22 615.415 595.386C617.824 596.553 619.703 598.205 621.051 600.341C622.415 602.462 623.134 604.955 623.21 607.818H612.824C612.612 606.03 612.006 604.629 611.006 603.614C610.021 602.598 608.733 602.091 607.142 602.091C605.854 602.091 604.725 602.455 603.756 603.182C602.786 603.894 602.028 604.955 601.483 606.364C600.953 607.758 600.688 609.485 600.688 611.545C600.688 613.606 600.953 615.348 601.483 616.773C602.028 618.182 602.786 619.25 603.756 619.977C604.725 620.689 605.854 621.045 607.142 621.045C608.172 621.045 609.081 620.826 609.869 620.386C610.672 619.947 611.331 619.303 611.847 618.455C612.362 617.591 612.688 616.545 612.824 615.318H623.21C623.104 618.197 622.384 620.712 621.051 622.864C619.733 625.015 617.877 626.689 615.483 627.886C613.104 629.068 610.278 629.659 607.006 629.659ZM645.216 629.659C641.564 629.659 638.413 628.939 635.761 627.5C633.125 626.045 631.095 623.977 629.67 621.295C628.261 618.598 627.557 615.394 627.557 611.682C627.557 608.076 628.269 604.924 629.693 602.227C631.117 599.515 633.125 597.409 635.716 595.909C638.307 594.394 641.36 593.636 644.875 593.636C647.36 593.636 649.633 594.023 651.693 594.795C653.754 595.568 655.534 596.712 657.034 598.227C658.534 599.742 659.701 601.614 660.534 603.841C661.367 606.053 661.784 608.591 661.784 611.455V614.227H631.443V607.773H651.443C651.428 606.591 651.148 605.538 650.602 604.614C650.057 603.689 649.307 602.97 648.352 602.455C647.413 601.924 646.33 601.659 645.102 601.659C643.86 601.659 642.746 601.939 641.761 602.5C640.777 603.045 639.996 603.795 639.42 604.75C638.845 605.689 638.542 606.758 638.511 607.955V614.523C638.511 615.947 638.792 617.197 639.352 618.273C639.913 619.333 640.708 620.159 641.739 620.75C642.769 621.341 643.996 621.636 645.42 621.636C646.405 621.636 647.299 621.5 648.102 621.227C648.905 620.955 649.595 620.553 650.17 620.023C650.746 619.492 651.178 618.841 651.466 618.068L661.67 618.364C661.246 620.652 660.314 622.644 658.875 624.341C657.451 626.023 655.58 627.333 653.261 628.273C650.943 629.197 648.261 629.659 645.216 629.659Z" fill="#8A8A8A"/>
<path d="M677.528 629H665.438L681.142 582.455H696.119L711.824 629H699.733L688.801 594.182H688.438L677.528 629ZM675.915 610.682H701.188V619.227H675.915V610.682ZM730.92 642.818C727.602 642.818 724.761 642.356 722.398 641.432C720.034 640.508 718.178 639.242 716.83 637.636C715.481 636.03 714.67 634.212 714.398 632.182L724.92 631.591C725.117 632.303 725.481 632.924 726.011 633.455C726.557 633.985 727.261 634.394 728.125 634.682C729.004 634.97 730.034 635.114 731.216 635.114C733.08 635.114 734.617 634.659 735.83 633.75C737.057 632.856 737.67 631.288 737.67 629.045V622.909H737.284C736.845 623.985 736.178 624.947 735.284 625.795C734.39 626.644 733.277 627.311 731.943 627.795C730.625 628.28 729.11 628.523 727.398 628.523C724.852 628.523 722.519 627.932 720.398 626.75C718.292 625.553 716.602 623.705 715.33 621.205C714.072 618.689 713.443 615.455 713.443 611.5C713.443 607.424 714.095 604.068 715.398 601.432C716.701 598.78 718.405 596.818 720.511 595.545C722.633 594.273 724.913 593.636 727.352 593.636C729.186 593.636 730.754 593.955 732.057 594.591C733.375 595.212 734.458 596.015 735.307 597C736.155 597.985 736.799 599.008 737.239 600.068H737.557V594.091H748.625V629.136C748.625 632.091 747.883 634.583 746.398 636.614C744.913 638.644 742.837 640.182 740.17 641.227C737.504 642.288 734.42 642.818 730.92 642.818ZM731.261 620.432C732.61 620.432 733.761 620.076 734.716 619.364C735.67 618.652 736.405 617.629 736.92 616.295C737.436 614.962 737.693 613.364 737.693 611.5C737.693 609.606 737.436 607.977 736.92 606.614C736.42 605.235 735.686 604.174 734.716 603.432C733.761 602.689 732.61 602.318 731.261 602.318C729.883 602.318 728.716 602.697 727.761 603.455C726.807 604.212 726.08 605.28 725.58 606.659C725.095 608.023 724.852 609.636 724.852 611.5C724.852 613.364 725.102 614.962 725.602 616.295C726.102 617.629 726.822 618.652 727.761 619.364C728.716 620.076 729.883 620.432 731.261 620.432ZM772.006 629.659C768.339 629.659 765.188 628.909 762.551 627.409C759.93 625.894 757.907 623.788 756.483 621.091C755.074 618.379 754.369 615.235 754.369 611.659C754.369 608.068 755.074 604.924 756.483 602.227C757.907 599.515 759.93 597.409 762.551 595.909C765.188 594.394 768.339 593.636 772.006 593.636C775.672 593.636 778.816 594.394 781.438 595.909C784.074 597.409 786.097 599.515 787.506 602.227C788.93 604.924 789.642 608.068 789.642 611.659C789.642 615.235 788.93 618.379 787.506 621.091C786.097 623.788 784.074 625.894 781.438 627.409C778.816 628.909 775.672 629.659 772.006 629.659ZM772.074 621.273C773.407 621.273 774.536 620.864 775.46 620.045C776.384 619.227 777.089 618.091 777.574 616.636C778.074 615.182 778.324 613.5 778.324 611.591C778.324 609.652 778.074 607.955 777.574 606.5C777.089 605.045 776.384 603.909 775.46 603.091C774.536 602.273 773.407 601.864 772.074 601.864C770.695 601.864 769.528 602.273 768.574 603.091C767.634 603.909 766.915 605.045 766.415 606.5C765.93 607.955 765.688 609.652 765.688 611.591C765.688 613.5 765.93 615.182 766.415 616.636C766.915 618.091 767.634 619.227 768.574 620.045C769.528 620.864 770.695 621.273 772.074 621.273ZM795.335 629V594.091H806.131V600.455H806.494C807.131 598.152 808.169 596.439 809.608 595.318C811.047 594.182 812.722 593.614 814.631 593.614C815.146 593.614 815.676 593.652 816.222 593.727C816.767 593.788 817.275 593.886 817.744 594.023V603.682C817.214 603.5 816.517 603.356 815.653 603.25C814.805 603.144 814.047 603.091 813.381 603.091C812.063 603.091 810.873 603.386 809.812 603.977C808.767 604.553 807.941 605.364 807.335 606.409C806.744 607.439 806.449 608.652 806.449 610.045V629H795.335ZM830.801 629.591C828.574 629.591 826.597 629.22 824.869 628.477C823.157 627.72 821.801 626.583 820.801 625.068C819.816 623.538 819.324 621.621 819.324 619.318C819.324 617.379 819.665 615.742 820.347 614.409C821.028 613.076 821.968 611.992 823.165 611.159C824.362 610.326 825.741 609.697 827.301 609.273C828.862 608.833 830.528 608.538 832.301 608.386C834.286 608.205 835.884 608.015 837.097 607.818C838.309 607.606 839.188 607.311 839.733 606.932C840.294 606.538 840.574 605.985 840.574 605.273V605.159C840.574 603.992 840.172 603.091 839.369 602.455C838.566 601.818 837.483 601.5 836.119 601.5C834.65 601.5 833.468 601.818 832.574 602.455C831.68 603.091 831.112 603.97 830.869 605.091L820.619 604.727C820.922 602.606 821.703 600.712 822.96 599.045C824.233 597.364 825.975 596.045 828.188 595.091C830.415 594.121 833.089 593.636 836.21 593.636C838.438 593.636 840.491 593.902 842.369 594.432C844.248 594.947 845.884 595.705 847.278 596.705C848.672 597.689 849.748 598.902 850.506 600.341C851.278 601.78 851.665 603.424 851.665 605.273V629H841.21V624.136H840.938C840.316 625.318 839.521 626.318 838.551 627.136C837.597 627.955 836.468 628.568 835.165 628.977C833.877 629.386 832.422 629.591 830.801 629.591ZM834.233 622.318C835.43 622.318 836.506 622.076 837.46 621.591C838.43 621.106 839.203 620.439 839.778 619.591C840.354 618.727 840.642 617.727 840.642 616.591V613.273C840.324 613.439 839.938 613.591 839.483 613.727C839.044 613.864 838.559 613.992 838.028 614.114C837.498 614.235 836.953 614.341 836.392 614.432C835.831 614.523 835.294 614.606 834.778 614.682C833.733 614.848 832.839 615.106 832.097 615.455C831.369 615.803 830.809 616.258 830.415 616.818C830.036 617.364 829.847 618.015 829.847 618.773C829.847 619.924 830.256 620.803 831.074 621.409C831.907 622.015 832.96 622.318 834.233 622.318Z" fill="#DB7412"/>
<defs>
<filter id="filter0_f_246_101" x="0.299988" y="0.299988" width="1252.4" height="1118.4" filterUnits="userSpaceOnUse" color-interpolation-filters="sRGB">
<feFlood flood-opacity="0" result="BackgroundImageFix"/>
<feBlend mode="normal" in="SourceGraphic" in2="BackgroundImageFix" result="shape"/>
<feGaussianBlur stdDeviation="179.35" result="effect1_foregroundBlur_246_101"/>
</filter>
</defs>
</svg>
