<svg width="1920" height="1305" viewBox="0 0 1920 1305" fill="none" xmlns="http://www.w3.org/2000/svg">
<path d="M1920 0L0 465V1305L1920 840V0Z" fill="#F4F4F4"/>
<path d="M86.25 590.455L100.795 631.477H101.205L115.75 590.455H120.205L103.273 637H98.7273L81.7955 590.455H86.25ZM138.205 637.727C134.947 637.727 132.129 636.97 129.75 635.455C127.371 633.924 125.53 631.811 124.227 629.114C122.939 626.402 122.295 623.28 122.295 619.75C122.295 616.235 122.939 613.114 124.227 610.386C125.53 607.644 127.326 605.5 129.614 603.955C131.917 602.394 134.576 601.614 137.591 601.614C139.485 601.614 141.311 601.962 143.068 602.659C144.826 603.341 146.402 604.394 147.795 605.818C149.205 607.227 150.318 609.008 151.136 611.159C151.955 613.295 152.364 615.826 152.364 618.75V620.75H125.091V617.182H148.227C148.227 614.939 147.773 612.924 146.864 611.136C145.97 609.333 144.72 607.909 143.114 606.864C141.523 605.818 139.682 605.295 137.591 605.295C135.379 605.295 133.432 605.886 131.75 607.068C130.068 608.25 128.75 609.811 127.795 611.75C126.856 613.689 126.379 615.811 126.364 618.114V620.25C126.364 623.023 126.841 625.447 127.795 627.523C128.765 629.583 130.136 631.182 131.909 632.318C133.682 633.455 135.78 634.023 138.205 634.023C139.856 634.023 141.303 633.765 142.545 633.25C143.803 632.735 144.856 632.045 145.705 631.182C146.568 630.303 147.22 629.341 147.659 628.295L151.5 629.545C150.97 631.015 150.098 632.371 148.886 633.614C147.689 634.856 146.189 635.856 144.386 636.614C142.598 637.356 140.538 637.727 138.205 637.727ZM165.324 615.182V637H161.278V602.091H165.21V607.568H165.574C166.392 605.78 167.665 604.348 169.392 603.273C171.134 602.182 173.286 601.636 175.847 601.636C178.195 601.636 180.256 602.129 182.028 603.114C183.816 604.083 185.203 605.515 186.188 607.409C187.188 609.303 187.688 611.629 187.688 614.386V637H183.642V614.636C183.642 611.773 182.839 609.508 181.233 607.841C179.642 606.174 177.506 605.341 174.824 605.341C172.991 605.341 171.362 605.735 169.938 606.523C168.513 607.311 167.384 608.447 166.551 609.932C165.733 611.402 165.324 613.152 165.324 615.182ZM202.386 615.182V637H198.341V590.455H202.386V607.568H202.75C203.568 605.765 204.833 604.326 206.545 603.25C208.273 602.174 210.455 601.636 213.091 601.636C215.455 601.636 217.53 602.121 219.318 603.091C221.106 604.061 222.5 605.492 223.5 607.386C224.5 609.28 225 611.614 225 614.386V637H220.932V614.636C220.932 611.758 220.129 609.492 218.523 607.841C216.932 606.174 214.78 605.341 212.068 605.341C210.205 605.341 208.545 605.735 207.091 606.523C205.636 607.311 204.485 608.447 203.636 609.932C202.803 611.402 202.386 613.152 202.386 615.182ZM245.403 637.795C243.297 637.795 241.373 637.386 239.631 636.568C237.888 635.735 236.502 634.538 235.472 632.977C234.441 631.402 233.926 629.492 233.926 627.25C233.926 625.523 234.252 624.068 234.903 622.886C235.555 621.705 236.479 620.735 237.676 619.977C238.873 619.22 240.29 618.621 241.926 618.182C243.563 617.742 245.366 617.402 247.335 617.159C249.29 616.917 250.941 616.705 252.29 616.523C253.653 616.341 254.691 616.053 255.403 615.659C256.116 615.265 256.472 614.629 256.472 613.75V612.932C256.472 610.553 255.759 608.682 254.335 607.318C252.926 605.939 250.896 605.25 248.244 605.25C245.729 605.25 243.676 605.803 242.085 606.909C240.509 608.015 239.403 609.318 238.767 610.818L234.926 609.432C235.714 607.523 236.805 606 238.199 604.864C239.593 603.712 241.153 602.886 242.881 602.386C244.608 601.871 246.358 601.614 248.131 601.614C249.464 601.614 250.85 601.788 252.29 602.136C253.744 602.485 255.093 603.091 256.335 603.955C257.578 604.803 258.585 605.992 259.358 607.523C260.131 609.038 260.517 610.962 260.517 613.295V637H256.472V631.477H256.222C255.737 632.508 255.017 633.508 254.062 634.477C253.108 635.447 251.911 636.242 250.472 636.864C249.032 637.485 247.343 637.795 245.403 637.795ZM245.949 634.091C248.1 634.091 249.964 633.614 251.54 632.659C253.116 631.705 254.328 630.439 255.176 628.864C256.04 627.273 256.472 625.523 256.472 623.614V618.568C256.169 618.856 255.661 619.114 254.949 619.341C254.252 619.568 253.441 619.773 252.517 619.955C251.608 620.121 250.699 620.265 249.79 620.386C248.881 620.508 248.062 620.614 247.335 620.705C245.366 620.947 243.684 621.326 242.29 621.841C240.896 622.356 239.828 623.068 239.085 623.977C238.343 624.871 237.972 626.023 237.972 627.432C237.972 629.553 238.729 631.197 240.244 632.364C241.759 633.515 243.661 634.091 245.949 634.091ZM303.642 602.091V605.614H286.483V602.091H303.642ZM291.847 637V596.977C291.847 595.098 292.278 593.515 293.142 592.227C294.021 590.939 295.165 589.962 296.574 589.295C297.983 588.629 299.475 588.295 301.051 588.295C302.112 588.295 302.991 588.386 303.688 588.568C304.4 588.735 304.96 588.902 305.369 589.068L304.188 592.614C303.884 592.523 303.513 592.417 303.074 592.295C302.634 592.174 302.081 592.114 301.415 592.114C299.657 592.114 298.301 592.606 297.347 593.591C296.392 594.576 295.915 595.985 295.915 597.818L295.892 637H291.847ZM320.528 637.795C318.422 637.795 316.498 637.386 314.756 636.568C313.013 635.735 311.627 634.538 310.597 632.977C309.566 631.402 309.051 629.492 309.051 627.25C309.051 625.523 309.377 624.068 310.028 622.886C310.68 621.705 311.604 620.735 312.801 619.977C313.998 619.22 315.415 618.621 317.051 618.182C318.688 617.742 320.491 617.402 322.46 617.159C324.415 616.917 326.066 616.705 327.415 616.523C328.778 616.341 329.816 616.053 330.528 615.659C331.241 615.265 331.597 614.629 331.597 613.75V612.932C331.597 610.553 330.884 608.682 329.46 607.318C328.051 605.939 326.021 605.25 323.369 605.25C320.854 605.25 318.801 605.803 317.21 606.909C315.634 608.015 314.528 609.318 313.892 610.818L310.051 609.432C310.839 607.523 311.93 606 313.324 604.864C314.718 603.712 316.278 602.886 318.006 602.386C319.733 601.871 321.483 601.614 323.256 601.614C324.589 601.614 325.975 601.788 327.415 602.136C328.869 602.485 330.218 603.091 331.46 603.955C332.703 604.803 333.71 605.992 334.483 607.523C335.256 609.038 335.642 610.962 335.642 613.295V637H331.597V631.477H331.347C330.862 632.508 330.142 633.508 329.188 634.477C328.233 635.447 327.036 636.242 325.597 636.864C324.157 637.485 322.468 637.795 320.528 637.795ZM321.074 634.091C323.225 634.091 325.089 633.614 326.665 632.659C328.241 631.705 329.453 630.439 330.301 628.864C331.165 627.273 331.597 625.523 331.597 623.614V618.568C331.294 618.856 330.786 619.114 330.074 619.341C329.377 619.568 328.566 619.773 327.642 619.955C326.733 620.121 325.824 620.265 324.915 620.386C324.006 620.508 323.188 620.614 322.46 620.705C320.491 620.947 318.809 621.326 317.415 621.841C316.021 622.356 314.953 623.068 314.21 623.977C313.468 624.871 313.097 626.023 313.097 627.432C313.097 629.553 313.854 631.197 315.369 632.364C316.884 633.515 318.786 634.091 321.074 634.091ZM345.312 637V633.795L365.494 606.205V605.909H346.176V602.091H370.699V605.432L350.881 632.886V633.182H371.426V637H345.312ZM393.455 637.727C390.197 637.727 387.379 636.97 385 635.455C382.621 633.924 380.78 631.811 379.477 629.114C378.189 626.402 377.545 623.28 377.545 619.75C377.545 616.235 378.189 613.114 379.477 610.386C380.78 607.644 382.576 605.5 384.864 603.955C387.167 602.394 389.826 601.614 392.841 601.614C394.735 601.614 396.561 601.962 398.318 602.659C400.076 603.341 401.652 604.394 403.045 605.818C404.455 607.227 405.568 609.008 406.386 611.159C407.205 613.295 407.614 615.826 407.614 618.75V620.75H380.341V617.182H403.477C403.477 614.939 403.023 612.924 402.114 611.136C401.22 609.333 399.97 607.909 398.364 606.864C396.773 605.818 394.932 605.295 392.841 605.295C390.629 605.295 388.682 605.886 387 607.068C385.318 608.25 384 609.811 383.045 611.75C382.106 613.689 381.629 615.811 381.614 618.114V620.25C381.614 623.023 382.091 625.447 383.045 627.523C384.015 629.583 385.386 631.182 387.159 632.318C388.932 633.455 391.03 634.023 393.455 634.023C395.106 634.023 396.553 633.765 397.795 633.25C399.053 632.735 400.106 632.045 400.955 631.182C401.818 630.303 402.47 629.341 402.909 628.295L406.75 629.545C406.22 631.015 405.348 632.371 404.136 633.614C402.939 634.856 401.439 635.856 399.636 636.614C397.848 637.356 395.788 637.727 393.455 637.727ZM416.528 637V602.091H420.46V607.455H420.756C421.453 605.697 422.665 604.28 424.392 603.205C426.134 602.114 428.104 601.568 430.301 601.568C430.634 601.568 431.006 601.576 431.415 601.591C431.824 601.606 432.165 601.621 432.438 601.636V605.75C432.256 605.72 431.938 605.674 431.483 605.614C431.028 605.553 430.536 605.523 430.006 605.523C428.188 605.523 426.566 605.909 425.142 606.682C423.733 607.439 422.619 608.492 421.801 609.841C420.983 611.189 420.574 612.727 420.574 614.455V637H416.528ZM457.341 650.091V602.091H461.273V608.75H461.75C462.235 607.705 462.902 606.636 463.75 605.545C464.598 604.439 465.72 603.508 467.114 602.75C468.523 601.992 470.295 601.614 472.432 601.614C475.311 601.614 477.826 602.371 479.977 603.886C482.144 605.386 483.826 607.492 485.023 610.205C486.235 612.902 486.841 616.045 486.841 619.636C486.841 623.242 486.235 626.402 485.023 629.114C483.826 631.826 482.144 633.939 479.977 635.455C477.826 636.97 475.326 637.727 472.477 637.727C470.371 637.727 468.606 637.348 467.182 636.591C465.773 635.833 464.629 634.902 463.75 633.795C462.886 632.674 462.22 631.583 461.75 630.523H461.386V650.091H457.341ZM461.341 619.568C461.341 622.386 461.758 624.886 462.591 627.068C463.439 629.235 464.652 630.939 466.227 632.182C467.818 633.409 469.742 634.023 472 634.023C474.318 634.023 476.273 633.386 477.864 632.114C479.47 630.826 480.689 629.091 481.523 626.909C482.371 624.727 482.795 622.28 482.795 619.568C482.795 616.886 482.379 614.47 481.545 612.318C480.727 610.167 479.515 608.462 477.909 607.205C476.303 605.932 474.333 605.295 472 605.295C469.727 605.295 467.795 605.909 466.205 607.136C464.614 608.348 463.402 610.03 462.568 612.182C461.75 614.318 461.341 616.78 461.341 619.568ZM505.466 637.795C503.36 637.795 501.436 637.386 499.693 636.568C497.951 635.735 496.564 634.538 495.534 632.977C494.504 631.402 493.989 629.492 493.989 627.25C493.989 625.523 494.314 624.068 494.966 622.886C495.617 621.705 496.542 620.735 497.739 619.977C498.936 619.22 500.352 618.621 501.989 618.182C503.625 617.742 505.428 617.402 507.398 617.159C509.352 616.917 511.004 616.705 512.352 616.523C513.716 616.341 514.754 616.053 515.466 615.659C516.178 615.265 516.534 614.629 516.534 613.75V612.932C516.534 610.553 515.822 608.682 514.398 607.318C512.989 605.939 510.958 605.25 508.307 605.25C505.792 605.25 503.739 605.803 502.148 606.909C500.572 608.015 499.466 609.318 498.83 610.818L494.989 609.432C495.777 607.523 496.867 606 498.261 604.864C499.655 603.712 501.216 602.886 502.943 602.386C504.67 601.871 506.42 601.614 508.193 601.614C509.527 601.614 510.913 601.788 512.352 602.136C513.807 602.485 515.155 603.091 516.398 603.955C517.64 604.803 518.648 605.992 519.42 607.523C520.193 609.038 520.58 610.962 520.58 613.295V637H516.534V631.477H516.284C515.799 632.508 515.08 633.508 514.125 634.477C513.17 635.447 511.973 636.242 510.534 636.864C509.095 637.485 507.405 637.795 505.466 637.795ZM506.011 634.091C508.163 634.091 510.027 633.614 511.602 632.659C513.178 631.705 514.39 630.439 515.239 628.864C516.102 627.273 516.534 625.523 516.534 623.614V618.568C516.231 618.856 515.723 619.114 515.011 619.341C514.314 619.568 513.504 619.773 512.58 619.955C511.67 620.121 510.761 620.265 509.852 620.386C508.943 620.508 508.125 620.614 507.398 620.705C505.428 620.947 503.746 621.326 502.352 621.841C500.958 622.356 499.89 623.068 499.148 623.977C498.405 624.871 498.034 626.023 498.034 627.432C498.034 629.553 498.792 631.197 500.307 632.364C501.822 633.515 503.723 634.091 506.011 634.091ZM531.341 637V602.091H535.273V607.455H535.568C536.265 605.697 537.477 604.28 539.205 603.205C540.947 602.114 542.917 601.568 545.114 601.568C545.447 601.568 545.818 601.576 546.227 601.591C546.636 601.606 546.977 601.621 547.25 601.636V605.75C547.068 605.72 546.75 605.674 546.295 605.614C545.841 605.553 545.348 605.523 544.818 605.523C543 605.523 541.379 605.909 539.955 606.682C538.545 607.439 537.432 608.492 536.614 609.841C535.795 611.189 535.386 612.727 535.386 614.455V637H531.341ZM570.091 602.091V605.614H553.432V602.091H570.091ZM558.636 593.727H562.705V627.886C562.705 629.341 562.955 630.485 563.455 631.318C563.955 632.136 564.606 632.72 565.409 633.068C566.212 633.402 567.068 633.568 567.977 633.568C568.508 633.568 568.962 633.538 569.341 633.477C569.72 633.402 570.053 633.326 570.341 633.25L571.205 636.909C570.811 637.061 570.326 637.197 569.75 637.318C569.174 637.455 568.462 637.523 567.614 637.523C566.129 637.523 564.697 637.197 563.318 636.545C561.955 635.894 560.833 634.924 559.955 633.636C559.076 632.348 558.636 630.75 558.636 628.841V593.727ZM593.017 637.727C589.759 637.727 586.941 636.97 584.562 635.455C582.184 633.924 580.343 631.811 579.04 629.114C577.752 626.402 577.108 623.28 577.108 619.75C577.108 616.235 577.752 613.114 579.04 610.386C580.343 607.644 582.138 605.5 584.426 603.955C586.729 602.394 589.388 601.614 592.403 601.614C594.297 601.614 596.123 601.962 597.881 602.659C599.638 603.341 601.214 604.394 602.608 605.818C604.017 607.227 605.131 609.008 605.949 611.159C606.767 613.295 607.176 615.826 607.176 618.75V620.75H579.903V617.182H603.04C603.04 614.939 602.585 612.924 601.676 611.136C600.782 609.333 599.532 607.909 597.926 606.864C596.335 605.818 594.494 605.295 592.403 605.295C590.191 605.295 588.244 605.886 586.562 607.068C584.881 608.25 583.563 609.811 582.608 611.75C581.669 613.689 581.191 615.811 581.176 618.114V620.25C581.176 623.023 581.653 625.447 582.608 627.523C583.578 629.583 584.949 631.182 586.722 632.318C588.494 633.455 590.593 634.023 593.017 634.023C594.669 634.023 596.116 633.765 597.358 633.25C598.616 632.735 599.669 632.045 600.517 631.182C601.381 630.303 602.032 629.341 602.472 628.295L606.312 629.545C605.782 631.015 604.911 632.371 603.699 633.614C602.502 634.856 601.002 635.856 599.199 636.614C597.411 637.356 595.35 637.727 593.017 637.727ZM648.205 637.727C644.947 637.727 642.129 636.97 639.75 635.455C637.371 633.924 635.53 631.811 634.227 629.114C632.939 626.402 632.295 623.28 632.295 619.75C632.295 616.235 632.939 613.114 634.227 610.386C635.53 607.644 637.326 605.5 639.614 603.955C641.917 602.394 644.576 601.614 647.591 601.614C649.485 601.614 651.311 601.962 653.068 602.659C654.826 603.341 656.402 604.394 657.795 605.818C659.205 607.227 660.318 609.008 661.136 611.159C661.955 613.295 662.364 615.826 662.364 618.75V620.75H635.091V617.182H658.227C658.227 614.939 657.773 612.924 656.864 611.136C655.97 609.333 654.72 607.909 653.114 606.864C651.523 605.818 649.682 605.295 647.591 605.295C645.379 605.295 643.432 605.886 641.75 607.068C640.068 608.25 638.75 609.811 637.795 611.75C636.856 613.689 636.379 615.811 636.364 618.114V620.25C636.364 623.023 636.841 625.447 637.795 627.523C638.765 629.583 640.136 631.182 641.909 632.318C643.682 633.455 645.78 634.023 648.205 634.023C649.856 634.023 651.303 633.765 652.545 633.25C653.803 632.735 654.856 632.045 655.705 631.182C656.568 630.303 657.22 629.341 657.659 628.295L661.5 629.545C660.97 631.015 660.098 632.371 658.886 633.614C657.689 634.856 656.189 635.856 654.386 636.614C652.598 637.356 650.538 637.727 648.205 637.727ZM95.0909 714.795C92.9848 714.795 91.0606 714.386 89.3182 713.568C87.5758 712.735 86.1894 711.538 85.1591 709.977C84.1288 708.402 83.6136 706.492 83.6136 704.25C83.6136 702.523 83.9394 701.068 84.5909 699.886C85.2424 698.705 86.1667 697.735 87.3636 696.977C88.5606 696.22 89.9773 695.621 91.6136 695.182C93.25 694.742 95.053 694.402 97.0227 694.159C98.9773 693.917 100.629 693.705 101.977 693.523C103.341 693.341 104.379 693.053 105.091 692.659C105.803 692.265 106.159 691.629 106.159 690.75V689.932C106.159 687.553 105.447 685.682 104.023 684.318C102.614 682.939 100.583 682.25 97.9318 682.25C95.4167 682.25 93.3636 682.803 91.7727 683.909C90.197 685.015 89.0909 686.318 88.4545 687.818L84.6136 686.432C85.4015 684.523 86.4924 683 87.8864 681.864C89.2803 680.712 90.8409 679.886 92.5682 679.386C94.2955 678.871 96.0455 678.614 97.8182 678.614C99.1515 678.614 100.538 678.788 101.977 679.136C103.432 679.485 104.78 680.091 106.023 680.955C107.265 681.803 108.273 682.992 109.045 684.523C109.818 686.038 110.205 687.962 110.205 690.295V714H106.159V708.477H105.909C105.424 709.508 104.705 710.508 103.75 711.477C102.795 712.447 101.598 713.242 100.159 713.864C98.7197 714.485 97.0303 714.795 95.0909 714.795ZM95.6364 711.091C97.7879 711.091 99.6515 710.614 101.227 709.659C102.803 708.705 104.015 707.439 104.864 705.864C105.727 704.273 106.159 702.523 106.159 700.614V695.568C105.856 695.856 105.348 696.114 104.636 696.341C103.939 696.568 103.129 696.773 102.205 696.955C101.295 697.121 100.386 697.265 99.4773 697.386C98.5682 697.508 97.75 697.614 97.0227 697.705C95.053 697.947 93.3712 698.326 91.9773 698.841C90.5833 699.356 89.5152 700.068 88.7727 700.977C88.0303 701.871 87.6591 703.023 87.6591 704.432C87.6591 706.553 88.4167 708.197 89.9318 709.364C91.447 710.515 93.3485 711.091 95.6364 711.091ZM120.966 727.091V679.091H124.898V685.75H125.375C125.86 684.705 126.527 683.636 127.375 682.545C128.223 681.439 129.345 680.508 130.739 679.75C132.148 678.992 133.92 678.614 136.057 678.614C138.936 678.614 141.451 679.371 143.602 680.886C145.769 682.386 147.451 684.492 148.648 687.205C149.86 689.902 150.466 693.045 150.466 696.636C150.466 700.242 149.86 703.402 148.648 706.114C147.451 708.826 145.769 710.939 143.602 712.455C141.451 713.97 138.951 714.727 136.102 714.727C133.996 714.727 132.231 714.348 130.807 713.591C129.398 712.833 128.254 711.902 127.375 710.795C126.511 709.674 125.845 708.583 125.375 707.523H125.011V727.091H120.966ZM124.966 696.568C124.966 699.386 125.383 701.886 126.216 704.068C127.064 706.235 128.277 707.939 129.852 709.182C131.443 710.409 133.367 711.023 135.625 711.023C137.943 711.023 139.898 710.386 141.489 709.114C143.095 707.826 144.314 706.091 145.148 703.909C145.996 701.727 146.42 699.28 146.42 696.568C146.42 693.886 146.004 691.47 145.17 689.318C144.352 687.167 143.14 685.462 141.534 684.205C139.928 682.932 137.958 682.295 135.625 682.295C133.352 682.295 131.42 682.909 129.83 684.136C128.239 685.348 127.027 687.03 126.193 689.182C125.375 691.318 124.966 693.78 124.966 696.568ZM159.341 714V679.091H163.273V684.455H163.568C164.265 682.697 165.477 681.28 167.205 680.205C168.947 679.114 170.917 678.568 173.114 678.568C173.447 678.568 173.818 678.576 174.227 678.591C174.636 678.606 174.977 678.621 175.25 678.636V682.75C175.068 682.72 174.75 682.674 174.295 682.614C173.841 682.553 173.348 682.523 172.818 682.523C171 682.523 169.379 682.909 167.955 683.682C166.545 684.439 165.432 685.492 164.614 686.841C163.795 688.189 163.386 689.727 163.386 691.455V714H159.341ZM182.199 714V679.091H186.267V714H182.199ZM184.267 673.091C183.434 673.091 182.722 672.811 182.131 672.25C181.54 671.674 181.244 670.985 181.244 670.182C181.244 669.379 181.54 668.697 182.131 668.136C182.722 667.561 183.434 667.273 184.267 667.273C185.1 667.273 185.813 667.561 186.403 668.136C186.994 668.697 187.29 669.379 187.29 670.182C187.29 670.985 186.994 671.674 186.403 672.25C185.813 672.811 185.1 673.091 184.267 673.091ZM196.966 714V679.091H200.898V684.455H201.261C201.958 682.652 203.117 681.235 204.739 680.205C206.375 679.159 208.337 678.636 210.625 678.636C213.034 678.636 215.011 679.205 216.557 680.341C218.117 681.462 219.284 683.008 220.057 684.977H220.352C221.14 683.038 222.42 681.5 224.193 680.364C225.981 679.212 228.148 678.636 230.693 678.636C233.936 678.636 236.496 679.659 238.375 681.705C240.254 683.735 241.193 686.705 241.193 690.614V714H237.148V690.614C237.148 687.856 236.443 685.788 235.034 684.409C233.625 683.03 231.769 682.341 229.466 682.341C226.799 682.341 224.746 683.159 223.307 684.795C221.867 686.432 221.148 688.508 221.148 691.023V714H217.011V690.25C217.011 687.886 216.352 685.977 215.034 684.523C213.716 683.068 211.86 682.341 209.466 682.341C207.86 682.341 206.413 682.735 205.125 683.523C203.852 684.311 202.845 685.409 202.102 686.818C201.375 688.212 201.011 689.818 201.011 691.636V714H196.966ZM265.472 714.727C262.456 714.727 259.79 713.962 257.472 712.432C255.169 710.902 253.366 708.788 252.062 706.091C250.759 703.379 250.108 700.25 250.108 696.705C250.108 693.129 250.759 689.985 252.062 687.273C253.366 684.545 255.169 682.424 257.472 680.909C259.79 679.379 262.456 678.614 265.472 678.614C268.487 678.614 271.146 679.379 273.449 680.909C275.752 682.439 277.555 684.561 278.858 687.273C280.176 689.985 280.835 693.129 280.835 696.705C280.835 700.25 280.184 703.379 278.881 706.091C277.578 708.788 275.767 710.902 273.449 712.432C271.146 713.962 268.487 714.727 265.472 714.727ZM265.472 711.023C267.896 711.023 269.949 710.371 271.631 709.068C273.313 707.765 274.585 706.03 275.449 703.864C276.328 701.697 276.767 699.311 276.767 696.705C276.767 694.098 276.328 691.705 275.449 689.523C274.585 687.341 273.313 685.591 271.631 684.273C269.949 682.955 267.896 682.295 265.472 682.295C263.063 682.295 261.009 682.955 259.312 684.273C257.631 685.591 256.35 687.341 255.472 689.523C254.608 691.705 254.176 694.098 254.176 696.705C254.176 699.311 254.608 701.697 255.472 703.864C256.35 706.03 257.631 707.765 259.312 709.068C260.994 710.371 263.047 711.023 265.472 711.023ZM289.716 714V679.091H293.648V684.455H293.943C294.64 682.697 295.852 681.28 297.58 680.205C299.322 679.114 301.292 678.568 303.489 678.568C303.822 678.568 304.193 678.576 304.602 678.591C305.011 678.606 305.352 678.621 305.625 678.636V682.75C305.443 682.72 305.125 682.674 304.67 682.614C304.216 682.553 303.723 682.523 303.193 682.523C301.375 682.523 299.754 682.909 298.33 683.682C296.92 684.439 295.807 685.492 294.989 686.841C294.17 688.189 293.761 689.727 293.761 691.455V714H289.716ZM322.278 714.795C320.172 714.795 318.248 714.386 316.506 713.568C314.763 712.735 313.377 711.538 312.347 709.977C311.316 708.402 310.801 706.492 310.801 704.25C310.801 702.523 311.127 701.068 311.778 699.886C312.43 698.705 313.354 697.735 314.551 696.977C315.748 696.22 317.165 695.621 318.801 695.182C320.438 694.742 322.241 694.402 324.21 694.159C326.165 693.917 327.816 693.705 329.165 693.523C330.528 693.341 331.566 693.053 332.278 692.659C332.991 692.265 333.347 691.629 333.347 690.75V689.932C333.347 687.553 332.634 685.682 331.21 684.318C329.801 682.939 327.771 682.25 325.119 682.25C322.604 682.25 320.551 682.803 318.96 683.909C317.384 685.015 316.278 686.318 315.642 687.818L311.801 686.432C312.589 684.523 313.68 683 315.074 681.864C316.468 680.712 318.028 679.886 319.756 679.386C321.483 678.871 323.233 678.614 325.006 678.614C326.339 678.614 327.725 678.788 329.165 679.136C330.619 679.485 331.968 680.091 333.21 680.955C334.453 681.803 335.46 682.992 336.233 684.523C337.006 686.038 337.392 687.962 337.392 690.295V714H333.347V708.477H333.097C332.612 709.508 331.892 710.508 330.938 711.477C329.983 712.447 328.786 713.242 327.347 713.864C325.907 714.485 324.218 714.795 322.278 714.795ZM322.824 711.091C324.975 711.091 326.839 710.614 328.415 709.659C329.991 708.705 331.203 707.439 332.051 705.864C332.915 704.273 333.347 702.523 333.347 700.614V695.568C333.044 695.856 332.536 696.114 331.824 696.341C331.127 696.568 330.316 696.773 329.392 696.955C328.483 697.121 327.574 697.265 326.665 697.386C325.756 697.508 324.938 697.614 324.21 697.705C322.241 697.947 320.559 698.326 319.165 698.841C317.771 699.356 316.703 700.068 315.96 700.977C315.218 701.871 314.847 703.023 314.847 704.432C314.847 706.553 315.604 708.197 317.119 709.364C318.634 710.515 320.536 711.091 322.824 711.091ZM348.153 714V679.091H352.085V684.455H352.381C353.078 682.697 354.29 681.28 356.017 680.205C357.759 679.114 359.729 678.568 361.926 678.568C362.259 678.568 362.631 678.576 363.04 678.591C363.449 678.606 363.79 678.621 364.062 678.636V682.75C363.881 682.72 363.563 682.674 363.108 682.614C362.653 682.553 362.161 682.523 361.631 682.523C359.813 682.523 358.191 682.909 356.767 683.682C355.358 684.439 354.244 685.492 353.426 686.841C352.608 688.189 352.199 689.727 352.199 691.455V714H348.153ZM412.42 686.75L408.716 687.795C408.352 686.75 407.837 685.803 407.17 684.955C406.504 684.106 405.633 683.432 404.557 682.932C403.496 682.432 402.178 682.182 400.602 682.182C398.239 682.182 396.299 682.742 394.784 683.864C393.269 684.985 392.511 686.432 392.511 688.205C392.511 689.705 393.027 690.924 394.057 691.864C395.102 692.788 396.708 693.523 398.875 694.068L404.148 695.364C407.072 696.076 409.261 697.205 410.716 698.75C412.186 700.295 412.92 702.235 412.92 704.568C412.92 706.538 412.375 708.288 411.284 709.818C410.193 711.348 408.67 712.553 406.716 713.432C404.777 714.295 402.527 714.727 399.966 714.727C396.557 714.727 393.746 713.962 391.534 712.432C389.322 710.886 387.905 708.659 387.284 705.75L391.17 704.795C391.67 706.871 392.648 708.439 394.102 709.5C395.572 710.561 397.504 711.091 399.898 711.091C402.58 711.091 404.723 710.492 406.33 709.295C407.936 708.083 408.739 706.568 408.739 704.75C408.739 703.341 408.269 702.159 407.33 701.205C406.39 700.235 404.966 699.523 403.057 699.068L397.352 697.705C394.322 696.977 392.08 695.826 390.625 694.25C389.17 692.674 388.443 690.72 388.443 688.386C388.443 686.462 388.966 684.773 390.011 683.318C391.057 681.848 392.496 680.697 394.33 679.864C396.163 679.03 398.254 678.614 400.602 678.614C403.799 678.614 406.352 679.341 408.261 680.795C410.186 682.235 411.572 684.22 412.42 686.75ZM435.892 714.727C432.634 714.727 429.816 713.97 427.438 712.455C425.059 710.924 423.218 708.811 421.915 706.114C420.627 703.402 419.983 700.28 419.983 696.75C419.983 693.235 420.627 690.114 421.915 687.386C423.218 684.644 425.013 682.5 427.301 680.955C429.604 679.394 432.263 678.614 435.278 678.614C437.172 678.614 438.998 678.962 440.756 679.659C442.513 680.341 444.089 681.394 445.483 682.818C446.892 684.227 448.006 686.008 448.824 688.159C449.642 690.295 450.051 692.826 450.051 695.75V697.75H422.778V694.182H445.915C445.915 691.939 445.46 689.924 444.551 688.136C443.657 686.333 442.407 684.909 440.801 683.864C439.21 682.818 437.369 682.295 435.278 682.295C433.066 682.295 431.119 682.886 429.438 684.068C427.756 685.25 426.438 686.811 425.483 688.75C424.544 690.689 424.066 692.811 424.051 695.114V697.25C424.051 700.023 424.528 702.447 425.483 704.523C426.453 706.583 427.824 708.182 429.597 709.318C431.369 710.455 433.468 711.023 435.892 711.023C437.544 711.023 438.991 710.765 440.233 710.25C441.491 709.735 442.544 709.045 443.392 708.182C444.256 707.303 444.907 706.341 445.347 705.295L449.188 706.545C448.657 708.015 447.786 709.371 446.574 710.614C445.377 711.856 443.877 712.856 442.074 713.614C440.286 714.356 438.225 714.727 435.892 714.727ZM481.148 700.659V679.091H485.193V714H481.148V708.205H480.83C480.011 709.992 478.716 711.485 476.943 712.682C475.17 713.864 473.004 714.455 470.443 714.455C468.216 714.455 466.239 713.97 464.511 713C462.784 712.015 461.428 710.576 460.443 708.682C459.458 706.788 458.966 704.462 458.966 701.705V679.091H463.011V701.455C463.011 704.182 463.814 706.379 465.42 708.045C467.027 709.697 469.087 710.523 471.602 710.523C473.178 710.523 474.693 710.144 476.148 709.386C477.602 708.629 478.799 707.523 479.739 706.068C480.678 704.598 481.148 702.795 481.148 700.659ZM517.949 692.182V714H513.903V679.091H517.835V684.568H518.199C519.017 682.78 520.29 681.348 522.017 680.273C523.759 679.182 525.911 678.636 528.472 678.636C530.82 678.636 532.881 679.129 534.653 680.114C536.441 681.083 537.828 682.515 538.812 684.409C539.812 686.303 540.312 688.629 540.312 691.386V714H536.267V691.636C536.267 688.773 535.464 686.508 533.858 684.841C532.267 683.174 530.131 682.341 527.449 682.341C525.616 682.341 523.987 682.735 522.562 683.523C521.138 684.311 520.009 685.447 519.176 686.932C518.358 688.402 517.949 690.152 517.949 692.182ZM565.08 714.727C561.822 714.727 559.004 713.97 556.625 712.455C554.246 710.924 552.405 708.811 551.102 706.114C549.814 703.402 549.17 700.28 549.17 696.75C549.17 693.235 549.814 690.114 551.102 687.386C552.405 684.644 554.201 682.5 556.489 680.955C558.792 679.394 561.451 678.614 564.466 678.614C566.36 678.614 568.186 678.962 569.943 679.659C571.701 680.341 573.277 681.394 574.67 682.818C576.08 684.227 577.193 686.008 578.011 688.159C578.83 690.295 579.239 692.826 579.239 695.75V697.75H551.966V694.182H575.102C575.102 691.939 574.648 689.924 573.739 688.136C572.845 686.333 571.595 684.909 569.989 683.864C568.398 682.818 566.557 682.295 564.466 682.295C562.254 682.295 560.307 682.886 558.625 684.068C556.943 685.25 555.625 686.811 554.67 688.75C553.731 690.689 553.254 692.811 553.239 695.114V697.25C553.239 700.023 553.716 702.447 554.67 704.523C555.64 706.583 557.011 708.182 558.784 709.318C560.557 710.455 562.655 711.023 565.08 711.023C566.731 711.023 568.178 710.765 569.42 710.25C570.678 709.735 571.731 709.045 572.58 708.182C573.443 707.303 574.095 706.341 574.534 705.295L578.375 706.545C577.845 708.015 576.973 709.371 575.761 710.614C574.564 711.856 573.064 712.856 571.261 713.614C569.473 714.356 567.413 714.727 565.08 714.727ZM601.472 727.818C599.093 727.818 597.009 727.508 595.222 726.886C593.434 726.28 591.926 725.447 590.699 724.386C589.472 723.326 588.517 722.136 587.835 720.818L591.153 718.636C591.653 719.515 592.32 720.379 593.153 721.227C594.002 722.076 595.1 722.78 596.449 723.341C597.813 723.902 599.487 724.182 601.472 724.182C604.563 724.182 607.055 723.409 608.949 721.864C610.858 720.318 611.812 717.917 611.812 714.659V706.795H611.449C610.979 707.856 610.305 708.917 609.426 709.977C608.547 711.023 607.396 711.894 605.972 712.591C604.563 713.288 602.813 713.636 600.722 713.636C597.934 713.636 595.456 712.947 593.29 711.568C591.138 710.189 589.441 708.22 588.199 705.659C586.972 703.083 586.358 700.015 586.358 696.455C586.358 692.924 586.956 689.818 588.153 687.136C589.366 684.455 591.055 682.364 593.222 680.864C595.388 679.364 597.911 678.614 600.79 678.614C602.926 678.614 604.699 678.992 606.108 679.75C607.517 680.492 608.646 681.417 609.494 682.523C610.358 683.629 611.032 684.705 611.517 685.75H611.926V679.091H615.881V714.909C615.881 717.864 615.252 720.295 613.994 722.205C612.737 724.114 611.025 725.523 608.858 726.432C606.691 727.356 604.229 727.818 601.472 727.818ZM601.199 709.932C603.441 709.932 605.358 709.394 606.949 708.318C608.54 707.227 609.759 705.667 610.608 703.636C611.456 701.606 611.881 699.189 611.881 696.386C611.881 693.659 611.464 691.242 610.631 689.136C609.797 687.015 608.585 685.348 606.994 684.136C605.419 682.909 603.487 682.295 601.199 682.295C598.866 682.295 596.896 682.924 595.29 684.182C593.684 685.439 592.472 687.136 591.653 689.273C590.835 691.394 590.426 693.765 590.426 696.386C590.426 699.053 590.843 701.409 591.676 703.455C592.509 705.485 593.729 707.076 595.335 708.227C596.941 709.364 598.896 709.932 601.199 709.932ZM640.159 714.727C637.144 714.727 634.477 713.962 632.159 712.432C629.856 710.902 628.053 708.788 626.75 706.091C625.447 703.379 624.795 700.25 624.795 696.705C624.795 693.129 625.447 689.985 626.75 687.273C628.053 684.545 629.856 682.424 632.159 680.909C634.477 679.379 637.144 678.614 640.159 678.614C643.174 678.614 645.833 679.379 648.136 680.909C650.439 682.439 652.242 684.561 653.545 687.273C654.864 689.985 655.523 693.129 655.523 696.705C655.523 700.25 654.871 703.379 653.568 706.091C652.265 708.788 650.455 710.902 648.136 712.432C645.833 713.962 643.174 714.727 640.159 714.727ZM640.159 711.023C642.583 711.023 644.636 710.371 646.318 709.068C648 707.765 649.273 706.03 650.136 703.864C651.015 701.697 651.455 699.311 651.455 696.705C651.455 694.098 651.015 691.705 650.136 689.523C649.273 687.341 648 685.591 646.318 684.273C644.636 682.955 642.583 682.295 640.159 682.295C637.75 682.295 635.697 682.955 634 684.273C632.318 685.591 631.038 687.341 630.159 689.523C629.295 691.705 628.864 694.098 628.864 696.705C628.864 699.311 629.295 701.697 630.159 703.864C631.038 706.03 632.318 707.765 634 709.068C635.682 710.371 637.735 711.023 640.159 711.023ZM638.273 674.25L644.091 663.932H648.886L641.909 674.25H638.273ZM678.04 714.727C674.919 714.727 672.199 713.947 669.881 712.386C667.578 710.826 665.79 708.689 664.517 705.977C663.244 703.265 662.608 700.174 662.608 696.705C662.608 693.205 663.252 690.091 664.54 687.364C665.843 684.636 667.646 682.5 669.949 680.955C672.252 679.394 674.926 678.614 677.972 678.614C680.305 678.614 682.419 679.068 684.312 679.977C686.206 680.871 687.767 682.136 688.994 683.773C690.237 685.394 691.017 687.288 691.335 689.455H687.244C686.82 687.485 685.797 685.803 684.176 684.409C682.57 683 680.525 682.295 678.04 682.295C675.813 682.295 673.843 682.902 672.131 684.114C670.419 685.311 669.078 686.985 668.108 689.136C667.153 691.273 666.676 693.75 666.676 696.568C666.676 699.402 667.146 701.909 668.085 704.091C669.025 706.258 670.343 707.955 672.04 709.182C673.752 710.409 675.752 711.023 678.04 711.023C679.585 711.023 680.994 710.735 682.267 710.159C683.555 709.568 684.631 708.735 685.494 707.659C686.373 706.583 686.964 705.303 687.267 703.818H691.358C691.055 705.924 690.305 707.803 689.108 709.455C687.926 711.091 686.388 712.379 684.494 713.318C682.616 714.258 680.464 714.727 678.04 714.727ZM700.074 714V679.091H704.142V714H700.074ZM702.142 673.091C701.309 673.091 700.597 672.811 700.006 672.25C699.415 671.674 699.119 670.985 699.119 670.182C699.119 669.379 699.415 668.697 700.006 668.136C700.597 667.561 701.309 667.273 702.142 667.273C702.975 667.273 703.688 667.561 704.278 668.136C704.869 668.697 705.165 669.379 705.165 670.182C705.165 670.985 704.869 671.674 704.278 672.25C703.688 672.811 702.975 673.091 702.142 673.091ZM728.409 714.727C725.394 714.727 722.727 713.962 720.409 712.432C718.106 710.902 716.303 708.788 715 706.091C713.697 703.379 713.045 700.25 713.045 696.705C713.045 693.129 713.697 689.985 715 687.273C716.303 684.545 718.106 682.424 720.409 680.909C722.727 679.379 725.394 678.614 728.409 678.614C731.424 678.614 734.083 679.379 736.386 680.909C738.689 682.439 740.492 684.561 741.795 687.273C743.114 689.985 743.773 693.129 743.773 696.705C743.773 700.25 743.121 703.379 741.818 706.091C740.515 708.788 738.705 710.902 736.386 712.432C734.083 713.962 731.424 714.727 728.409 714.727ZM728.409 711.023C730.833 711.023 732.886 710.371 734.568 709.068C736.25 707.765 737.523 706.03 738.386 703.864C739.265 701.697 739.705 699.311 739.705 696.705C739.705 694.098 739.265 691.705 738.386 689.523C737.523 687.341 736.25 685.591 734.568 684.273C732.886 682.955 730.833 682.295 728.409 682.295C726 682.295 723.947 682.955 722.25 684.273C720.568 685.591 719.288 687.341 718.409 689.523C717.545 691.705 717.114 694.098 717.114 696.705C717.114 699.311 717.545 701.697 718.409 703.864C719.288 706.03 720.568 707.765 722.25 709.068C723.932 710.371 725.985 711.023 728.409 711.023Z" fill="#8A8A8A"/>
<path d="M1135.58 752.182H1156.48L1174.21 795.409H1175.02L1192.75 752.182H1213.65V822H1197.22V779.114H1196.64L1179.87 821.557H1169.37L1152.59 778.875H1152.01V822H1135.58V752.182ZM1239.28 822H1221.14L1244.7 752.182H1267.16L1290.72 822H1272.58L1256.19 769.773H1255.64L1239.28 822ZM1236.86 794.523H1274.77V807.341H1236.86V794.523ZM1298.24 822V752.182H1327.08C1332.31 752.182 1336.82 753.125 1340.61 755.011C1344.43 756.875 1347.37 759.557 1349.44 763.057C1351.51 766.534 1352.54 770.659 1352.54 775.432C1352.54 780.273 1351.49 784.386 1349.37 787.773C1347.26 791.136 1344.26 793.705 1340.37 795.477C1336.49 797.227 1331.88 798.102 1326.57 798.102H1308.33V784.807H1323.43C1325.98 784.807 1328.1 784.477 1329.81 783.818C1331.53 783.136 1332.84 782.114 1333.73 780.75C1334.61 779.364 1335.06 777.591 1335.06 775.432C1335.06 773.273 1334.61 771.489 1333.73 770.08C1332.84 768.648 1331.53 767.58 1329.81 766.875C1328.08 766.148 1325.95 765.784 1323.43 765.784H1315.11V822H1298.24ZM1337.54 790.091L1354.93 822H1336.52L1319.48 790.091H1337.54ZM1361.8 822V752.182H1378.67V781.705H1379.6L1402.67 752.182H1422.55L1397.8 783.341L1422.99 822H1402.81L1385.42 794.557L1378.67 803.08V822H1361.8ZM1429.21 822V752.182H1477.89V765.886H1446.08V780.205H1475.4V793.943H1446.08V808.295H1477.89V822H1429.21ZM1486.17 765.886V752.182H1545.18V765.886H1524.01V822H1507.38V765.886H1486.17Z" fill="#8A8A8A"/>
<path d="M1553.42 822V752.182H1582.27C1587.49 752.182 1592 753.205 1595.8 755.25C1599.62 757.273 1602.56 760.102 1604.63 763.739C1606.7 767.352 1607.73 771.557 1607.73 776.352C1607.73 781.17 1606.67 785.386 1604.56 789C1602.47 792.591 1599.48 795.375 1595.6 797.352C1591.71 799.33 1587.1 800.318 1581.75 800.318H1563.96V787.023H1578.62C1581.16 787.023 1583.29 786.58 1584.99 785.693C1586.72 784.807 1588.03 783.568 1588.91 781.977C1589.8 780.364 1590.24 778.489 1590.24 776.352C1590.24 774.193 1589.8 772.33 1588.91 770.761C1588.03 769.17 1586.72 767.943 1584.99 767.08C1583.27 766.216 1581.14 765.784 1578.62 765.784H1570.3V822H1553.42ZM1658.29 752.182H1675.13V797.216C1675.13 802.42 1673.89 806.955 1671.41 810.818C1668.94 814.659 1665.48 817.636 1661.05 819.75C1656.62 821.841 1651.47 822.886 1645.61 822.886C1639.67 822.886 1634.49 821.841 1630.06 819.75C1625.63 817.636 1622.19 814.659 1619.73 810.818C1617.28 806.955 1616.05 802.42 1616.05 797.216V752.182H1632.92V795.75C1632.92 798.159 1633.45 800.307 1634.49 802.193C1635.56 804.08 1637.05 805.557 1638.96 806.625C1640.87 807.693 1643.08 808.227 1645.61 808.227C1648.13 808.227 1650.33 807.693 1652.22 806.625C1654.13 805.557 1655.62 804.08 1656.69 802.193C1657.75 800.307 1658.29 798.159 1658.29 795.75V752.182ZM1685.71 822V752.182H1702.58V808.295H1731.63V822H1685.71ZM1778.1 773.114C1777.87 770.614 1776.86 768.67 1775.07 767.284C1773.29 765.875 1770.76 765.17 1767.46 765.17C1765.28 765.17 1763.46 765.455 1762.01 766.023C1760.56 766.591 1759.46 767.375 1758.74 768.375C1758.01 769.352 1757.63 770.477 1757.61 771.75C1757.57 772.795 1757.77 773.716 1758.23 774.511C1758.7 775.307 1759.38 776.011 1760.27 776.625C1761.18 777.216 1762.27 777.739 1763.54 778.193C1764.82 778.648 1766.25 779.045 1767.84 779.386L1773.84 780.75C1777.29 781.5 1780.34 782.5 1782.98 783.75C1785.63 785 1787.86 786.489 1789.66 788.216C1791.48 789.943 1792.85 791.932 1793.78 794.182C1794.71 796.432 1795.19 798.955 1795.21 801.75C1795.19 806.159 1794.08 809.943 1791.87 813.102C1789.67 816.261 1786.5 818.682 1782.36 820.364C1778.25 822.045 1773.28 822.886 1767.46 822.886C1761.62 822.886 1756.53 822.011 1752.19 820.261C1747.85 818.511 1744.48 815.852 1742.07 812.284C1739.66 808.716 1738.42 804.205 1738.35 798.75H1754.51C1754.65 801 1755.25 802.875 1756.32 804.375C1757.38 805.875 1758.85 807.011 1760.71 807.784C1762.6 808.557 1764.78 808.943 1767.26 808.943C1769.53 808.943 1771.46 808.636 1773.06 808.023C1774.67 807.409 1775.91 806.557 1776.77 805.466C1777.63 804.375 1778.08 803.125 1778.1 801.716C1778.08 800.398 1777.67 799.273 1776.87 798.341C1776.08 797.386 1774.85 796.568 1773.19 795.886C1771.56 795.182 1769.46 794.534 1766.92 793.943L1759.62 792.239C1753.58 790.852 1748.82 788.614 1745.34 785.523C1741.86 782.409 1740.13 778.205 1740.16 772.909C1740.13 768.591 1741.29 764.807 1743.63 761.557C1745.98 758.307 1749.21 755.773 1753.35 753.955C1757.49 752.136 1762.2 751.227 1767.5 751.227C1772.91 751.227 1777.6 752.148 1781.58 753.989C1785.58 755.807 1788.68 758.364 1790.88 761.659C1793.09 764.955 1794.21 768.773 1794.26 773.114H1778.1ZM1803.74 822V752.182H1852.42V765.886H1820.61V780.205H1849.93V793.943H1820.61V808.295H1852.42V822H1803.74Z" fill="#DB7412"/>
</svg>
