<svg width="718" height="72" viewBox="0 0 718 72" fill="none" xmlns="http://www.w3.org/2000/svg">
<path d="M0.580966 1.18182H21.4787L39.206 44.4091H40.0241L57.7514 1.18182H78.6492V71H62.2173V28.1136H61.6378L44.8651 70.5568H34.3651L17.5923 27.875H17.0128V71H0.580966V1.18182ZM104.277 71H86.1406L109.697 1.18182H132.163L155.72 71H137.584L121.186 18.7727H120.641L104.277 71ZM101.857 43.5227H139.766V56.3409H101.857V43.5227ZM163.237 71V1.18182H192.078C197.305 1.18182 201.817 2.125 205.612 4.01136C209.43 5.875 212.374 8.55682 214.442 12.0568C216.51 15.5341 217.544 19.6591 217.544 24.4318C217.544 29.2727 216.487 33.3864 214.374 36.7727C212.26 40.1364 209.26 42.7045 205.374 44.4773C201.487 46.2273 196.885 47.1023 191.567 47.1023H173.328V33.8068H188.43C190.976 33.8068 193.101 33.4773 194.805 32.8182C196.533 32.1364 197.839 31.1136 198.726 29.75C199.612 28.3636 200.055 26.5909 200.055 24.4318C200.055 22.2727 199.612 20.4886 198.726 19.0795C197.839 17.6477 196.533 16.5795 194.805 15.875C193.078 15.1477 190.953 14.7841 188.43 14.7841H180.112V71H163.237ZM202.544 39.0909L219.93 71H201.521L184.476 39.0909H202.544ZM226.8 71V1.18182H243.675V30.7045H244.595L267.675 1.18182H287.55L262.8 32.3409L287.993 71H267.811L250.425 43.5568L243.675 52.0795V71H226.8ZM294.206 71V1.18182H342.888V14.8864H311.081V29.2045H340.399V42.9432H311.081V57.2955H342.888V71H294.206ZM351.172 14.8864V1.18182H410.183V14.8864H389.013V71H372.376V14.8864H351.172Z" fill="#8A8A8A"/>
<path d="M418.425 71V1.18182H447.266C452.493 1.18182 457.004 2.20454 460.8 4.25C464.618 6.27272 467.561 9.10227 469.629 12.7386C471.697 16.3523 472.732 20.5568 472.732 25.3523C472.732 30.1705 471.675 34.3864 469.561 38C467.47 41.5909 464.482 44.375 460.595 46.3523C456.709 48.3295 452.095 49.3182 446.754 49.3182H428.959V36.0227H443.618C446.163 36.0227 448.288 35.5795 449.993 34.6932C451.72 33.8068 453.027 32.5682 453.913 30.9773C454.8 29.3636 455.243 27.4886 455.243 25.3523C455.243 23.1932 454.8 21.3295 453.913 19.7614C453.027 18.1705 451.72 16.9432 449.993 16.0795C448.266 15.2159 446.141 14.7841 443.618 14.7841H435.3V71H418.425ZM523.288 1.18182H540.129V46.2159C540.129 51.4205 538.891 55.9545 536.413 59.8182C533.936 63.6591 530.482 66.6364 526.05 68.75C521.618 70.8409 516.47 71.8864 510.607 71.8864C504.675 71.8864 499.493 70.8409 495.061 68.75C490.629 66.6364 487.186 63.6591 484.732 59.8182C482.277 55.9545 481.05 51.4205 481.05 46.2159V1.18182H497.925V44.75C497.925 47.1591 498.447 49.3068 499.493 51.1932C500.561 53.0795 502.05 54.5568 503.959 55.625C505.868 56.6932 508.084 57.2273 510.607 57.2273C513.129 57.2273 515.334 56.6932 517.22 55.625C519.129 54.5568 520.618 53.0795 521.686 51.1932C522.754 49.3068 523.288 47.1591 523.288 44.75V1.18182ZM550.706 71V1.18182H567.581V57.2955H596.626V71H550.706ZM643.101 22.1136C642.874 19.6136 641.862 17.6705 640.067 16.2841C638.294 14.875 635.76 14.1705 632.464 14.1705C630.283 14.1705 628.464 14.4545 627.01 15.0227C625.555 15.5909 624.464 16.375 623.737 17.375C623.01 18.3523 622.635 19.4773 622.612 20.75C622.567 21.7955 622.771 22.7159 623.226 23.5114C623.703 24.3068 624.385 25.0114 625.271 25.625C626.18 26.2159 627.271 26.7386 628.544 27.1932C629.817 27.6477 631.249 28.0455 632.839 28.3864L638.839 29.75C642.294 30.5 645.339 31.5 647.976 32.75C650.635 34 652.862 35.4886 654.658 37.2159C656.476 38.9432 657.851 40.9318 658.783 43.1818C659.714 45.4318 660.192 47.9545 660.214 50.75C660.192 55.1591 659.078 58.9432 656.874 62.1023C654.669 65.2614 651.499 67.6818 647.362 69.3636C643.249 71.0455 638.283 71.8864 632.464 71.8864C626.624 71.8864 621.533 71.0114 617.192 69.2614C612.851 67.5114 609.476 64.8523 607.067 61.2841C604.658 57.7159 603.419 53.2045 603.351 47.75H619.51C619.646 50 620.249 51.875 621.317 53.375C622.385 54.875 623.851 56.0114 625.714 56.7841C627.601 57.5568 629.783 57.9432 632.26 57.9432C634.533 57.9432 636.464 57.6364 638.055 57.0227C639.669 56.4091 640.908 55.5568 641.771 54.4659C642.635 53.375 643.078 52.125 643.101 50.7159C643.078 49.3977 642.669 48.2727 641.874 47.3409C641.078 46.3864 639.851 45.5682 638.192 44.8864C636.555 44.1818 634.464 43.5341 631.919 42.9432L624.624 41.2386C618.578 39.8523 613.817 37.6136 610.339 34.5227C606.862 31.4091 605.135 27.2045 605.158 21.9091C605.135 17.5909 606.294 13.8068 608.635 10.5568C610.976 7.30682 614.214 4.77273 618.351 2.95455C622.487 1.13636 627.203 0.22727 632.499 0.22727C637.908 0.22727 642.601 1.14772 646.578 2.98863C650.578 4.80682 653.68 7.36364 655.885 10.6591C658.089 13.9545 659.214 17.7727 659.26 22.1136H643.101ZM668.737 71V1.18182H717.419V14.8864H685.612V29.2045H714.93V42.9432H685.612V57.2955H717.419V71H668.737Z" fill="#DB7412"/>
</svg>
