<svg width="412" height="42" viewBox="0 0 412 42" fill="none" xmlns="http://www.w3.org/2000/svg">
<path d="M0.655762 0.999999H12.6284L22.7847 25.7656H23.2534L33.4097 0.999999H45.3823V41H35.9683V16.4297H35.6362L26.0269 40.7461H20.0112L10.4019 16.293H10.0698V41H0.655762V0.999999ZM60.0649 41H49.6743L63.1704 0.999999H76.0415L89.5376 41H79.147L69.7524 11.0781H69.4399L60.0649 41ZM58.6782 25.2578H80.397V32.6016H58.6782V25.2578ZM93.8442 41V0.999999H110.368C113.362 0.999999 115.947 1.54036 118.122 2.62109C120.309 3.6888 121.995 5.22526 123.18 7.23047C124.365 9.22265 124.958 11.5859 124.958 14.3203C124.958 17.0937 124.352 19.4505 123.141 21.3906C121.93 23.3177 120.211 24.7891 117.985 25.8047C115.758 26.8073 113.122 27.3086 110.075 27.3086H99.6255V19.6914H108.278C109.736 19.6914 110.954 19.5026 111.93 19.125C112.92 18.7344 113.668 18.1484 114.176 17.3672C114.684 16.5729 114.938 15.5573 114.938 14.3203C114.938 13.0833 114.684 12.0612 114.176 11.2539C113.668 10.4336 112.92 9.82161 111.93 9.41797C110.941 9.0013 109.723 8.79297 108.278 8.79297H103.512V41H93.8442ZM116.364 22.7187L126.325 41H115.778L106.012 22.7187H116.364ZM130.26 41V0.999999H139.928V17.9141H140.456L153.678 0.999999H165.065L150.885 18.8516L165.319 41H153.756L143.795 25.2773L139.928 30.1602V41H130.26ZM168.878 41V0.999999H196.769V8.85156H178.546V17.0547H195.343V24.9258H178.546V33.1484H196.769V41H168.878ZM201.515 8.85156V0.999999H235.324V8.85156H223.195V41H213.664V8.85156H201.515Z" fill="#8A8A8A"/>
<path d="M240.045 41V0.999999H256.569C259.564 0.999999 262.148 1.58594 264.323 2.75781C266.51 3.91666 268.196 5.53776 269.381 7.62109C270.566 9.69141 271.159 12.1003 271.159 14.8477C271.159 17.6081 270.553 20.0234 269.342 22.0938C268.144 24.151 266.432 25.7461 264.206 26.8789C261.979 28.0117 259.336 28.5781 256.276 28.5781H246.081V20.9609H254.479C255.937 20.9609 257.155 20.707 258.131 20.1992C259.121 19.6914 259.87 18.9818 260.377 18.0703C260.885 17.1458 261.139 16.0716 261.139 14.8477C261.139 13.6107 260.885 12.543 260.377 11.6445C259.87 10.7331 259.121 10.0299 258.131 9.53516C257.142 9.04037 255.924 8.79297 254.479 8.79297H249.713V41H240.045ZM300.124 0.999999H309.772V26.8008C309.772 29.7826 309.062 32.3802 307.643 34.5937C306.224 36.7943 304.245 38.5 301.706 39.7109C299.167 40.9089 296.217 41.5078 292.858 41.5078C289.459 41.5078 286.491 40.9089 283.952 39.7109C281.413 38.5 279.44 36.7943 278.034 34.5937C276.627 32.3802 275.924 29.7826 275.924 26.8008V0.999999H285.592V25.9609C285.592 27.3411 285.892 28.5716 286.491 29.6523C287.103 30.7331 287.956 31.5794 289.049 32.1914C290.143 32.8034 291.413 33.1094 292.858 33.1094C294.303 33.1094 295.566 32.8034 296.647 32.1914C297.741 31.5794 298.594 30.7331 299.206 29.6523C299.818 28.5716 300.124 27.3411 300.124 25.9609V0.999999ZM315.832 41V0.999999H325.5V33.1484H342.14V41H315.832ZM368.766 12.9922C368.636 11.5599 368.056 10.4466 367.028 9.65234C366.012 8.84505 364.56 8.44141 362.672 8.44141C361.422 8.44141 360.381 8.60417 359.547 8.92969C358.714 9.25521 358.089 9.70443 357.672 10.2773C357.256 10.8372 357.041 11.4818 357.028 12.2109C357.002 12.8099 357.119 13.3372 357.379 13.793C357.653 14.2487 358.043 14.6523 358.551 15.0039C359.072 15.3424 359.697 15.6419 360.426 15.9023C361.155 16.1628 361.976 16.3906 362.887 16.5859L366.325 17.3672C368.304 17.7969 370.049 18.3698 371.559 19.0859C373.083 19.8021 374.359 20.6549 375.387 21.6445C376.429 22.6341 377.217 23.7734 377.75 25.0625C378.284 26.3516 378.558 27.7969 378.571 29.3984C378.558 31.9245 377.92 34.0924 376.657 35.9023C375.394 37.7122 373.577 39.099 371.208 40.0625C368.851 41.026 366.006 41.5078 362.672 41.5078C359.326 41.5078 356.409 41.0065 353.922 40.0039C351.435 39.0013 349.502 37.4779 348.122 35.4336C346.741 33.3893 346.032 30.8047 345.993 27.6797H355.25C355.329 28.9688 355.674 30.043 356.286 30.9023C356.898 31.7617 357.737 32.4128 358.805 32.8555C359.886 33.2982 361.136 33.5195 362.555 33.5195C363.857 33.5195 364.964 33.3437 365.875 32.9922C366.8 32.6406 367.51 32.1523 368.004 31.5273C368.499 30.9023 368.753 30.1862 368.766 29.3789C368.753 28.6237 368.519 27.9792 368.063 27.4453C367.607 26.8984 366.904 26.4297 365.954 26.0391C365.016 25.6354 363.818 25.2643 362.36 24.9258L358.18 23.9492C354.717 23.1549 351.989 21.8724 349.997 20.1016C348.004 18.3177 347.015 15.9089 347.028 12.875C347.015 10.401 347.679 8.23307 349.02 6.37109C350.361 4.50911 352.217 3.05729 354.586 2.01563C356.956 0.973957 359.658 0.453124 362.692 0.453124C365.791 0.453124 368.48 0.980467 370.758 2.03515C373.05 3.07682 374.827 4.54167 376.09 6.42969C377.353 8.31771 377.998 10.5052 378.024 12.9922H368.766ZM383.454 41V0.999999H411.344V8.85156H393.122V17.0547H409.918V24.9258H393.122V33.1484H411.344V41H383.454Z" fill="#DB7412"/>
</svg>
