<svg width="67" height="63" viewBox="0 0 67 63" fill="none" xmlns="http://www.w3.org/2000/svg">
<path opacity="0.3" fill-rule="evenodd" clip-rule="evenodd" d="M0.726562 31.4901V39.7707C0.726562 52.4732 11.024 62.7707 23.7266 62.7707H33.8262H43.9258C56.6283 62.7707 66.9258 52.4732 66.9258 39.7707V31.4901V23.2095C66.9258 10.5069 56.6283 0.209473 43.9258 0.209473H33.8262H23.7266C11.024 0.209473 0.726562 10.5069 0.726562 23.2095V31.4901Z" fill="#FF9066"/>
<path opacity="0.78" fill-rule="evenodd" clip-rule="evenodd" d="M32.3175 25.0129C32.3387 24.7533 32.5555 24.5535 32.8159 24.5535H33.3761C33.6319 24.5535 33.8464 24.7465 33.8734 25.0009L34.5616 31.5047L39.448 34.1435C39.6096 34.2308 39.7104 34.3997 39.7104 34.5834V35.0302C39.7104 35.357 39.4021 35.596 39.0856 35.5144L32.0271 33.6952C31.7915 33.6344 31.6338 33.4129 31.6535 33.1704L32.3175 25.0129Z" fill="#FF9066"/>
<path opacity="0.901274" fill-rule="evenodd" clip-rule="evenodd" d="M25.747 15.7785C25.4749 15.4721 24.9533 15.5853 24.8557 15.9719L23.0239 23.2293C22.9437 23.5471 23.2123 23.8504 23.5574 23.832L31.4573 23.4089C31.878 23.3864 32.0877 22.9198 31.8152 22.6129L29.7786 20.3192C31.0639 19.9042 32.4267 19.6874 33.8261 19.6874C40.7321 19.6874 46.3304 24.9781 46.3304 31.5045C46.3304 38.0309 40.7321 43.3216 33.8261 43.3216C26.9202 43.3216 21.3218 38.0309 21.3218 31.5045C21.3218 30.4089 21.4788 29.3358 21.7849 28.3044L18.9521 27.5535C18.5791 28.8101 18.3796 30.1353 18.3796 31.5045C18.3796 39.5665 25.2953 46.1021 33.8261 46.1021C42.357 46.1021 49.2726 39.5665 49.2726 31.5045C49.2726 23.4424 42.357 16.9069 33.8261 16.9069C31.6803 16.9069 29.6366 17.3204 27.7795 18.0677L25.747 15.7785Z" fill="#FF9066"/>
</svg>
