<svg width="67" height="63" viewBox="0 0 67 63" fill="none" xmlns="http://www.w3.org/2000/svg">
<path opacity="0.21" fill-rule="evenodd" clip-rule="evenodd" d="M0.217773 31.4901V39.7707C0.217773 52.4732 10.5152 62.7707 23.2178 62.7707H33.3174H43.417C56.1196 62.7707 66.417 52.4732 66.417 39.7707V31.4901V23.2095C66.417 10.5069 56.1196 0.209473 43.417 0.209473H33.3174H23.2178C10.5152 0.209473 0.217773 10.5069 0.217773 23.2095V31.4901Z" fill="#8280FF"/>
<path opacity="0.587821" fill-rule="evenodd" clip-rule="evenodd" d="M23.02 24.539C23.02 27.6103 25.6545 30.1 28.9044 30.1C32.1542 30.1 34.7888 27.6103 34.7888 24.539C34.7888 21.4678 32.1542 18.978 28.9044 18.978C25.6545 18.978 23.02 21.4678 23.02 24.539ZM37.7308 30.1001C37.7308 32.4035 39.7067 34.2708 42.1441 34.2708C44.5814 34.2708 46.5573 32.4035 46.5573 30.1001C46.5573 27.7967 44.5814 25.9294 42.1441 25.9294C39.7067 25.9294 37.7308 27.7967 37.7308 30.1001Z" fill="#8280FF"/>
<path fill-rule="evenodd" clip-rule="evenodd" d="M28.8796 32.8804C21.934 32.8804 16.2355 36.2538 15.6653 42.8891C15.6342 43.2505 16.3656 44.0024 16.7345 44.0024H41.0358C42.1409 44.0024 42.1581 43.1619 42.1409 42.8902C41.7099 36.0685 35.9231 32.8804 28.8796 32.8804ZM50.1704 44.0027H44.4977V44.0024C44.4977 40.8731 43.4037 37.9854 41.5575 35.662C46.5688 35.7138 50.6606 38.1082 50.9685 43.1685C50.9809 43.3724 50.9685 44.0027 50.1704 44.0027Z" fill="#8280FF"/>
</svg>
