<svg width="67" height="63" viewBox="0 0 67 63" fill="none" xmlns="http://www.w3.org/2000/svg">
<path opacity="0.21" fill-rule="evenodd" clip-rule="evenodd" d="M0.556885 31.4901V39.7707C0.556885 52.4732 10.8543 62.7707 23.5569 62.7707H33.6565H43.7561C56.4587 62.7707 66.7561 52.4732 66.7561 39.7707V31.4901V23.2095C66.7561 10.5069 56.4587 0.209473 43.7561 0.209473H33.6565H23.5569C10.8543 0.209473 0.556885 10.5069 0.556885 23.2095V31.4901Z" fill="#4AD991"/>
<path d="M21.6425 42.8439H47.3867C48.3345 42.8439 49.1029 43.5701 49.1029 44.4659C49.1029 45.3616 48.3345 46.0878 47.3867 46.0878H19.9262C18.9784 46.0878 18.21 45.3616 18.21 44.4659V18.5145C18.21 17.6188 18.9784 16.8926 19.9262 16.8926C20.8741 16.8926 21.6425 17.6188 21.6425 18.5145V42.8439Z" fill="#4AD991"/>
<path opacity="0.5" d="M28.0433 35.8434C27.395 36.4969 26.3089 36.53 25.6174 35.9174C24.9259 35.3047 24.8909 34.2783 25.5391 33.6248L31.9752 27.1369C32.6022 26.5049 33.644 26.4501 34.3413 27.0125L39.4211 31.1089L46.0395 23.1863C46.6268 22.4832 47.7061 22.3632 48.45 22.9183C49.194 23.4734 49.321 24.4933 48.7336 25.1964L41.0104 34.4416C40.4071 35.1637 39.2898 35.2675 38.5492 34.6703L33.3591 30.4848L28.0433 35.8434Z" fill="#4AD991"/>
</svg>
