<svg width="67" height="63" viewBox="0 0 67 63" fill="none" xmlns="http://www.w3.org/2000/svg">
<path opacity="0.21" fill-rule="evenodd" clip-rule="evenodd" d="M0.387207 31.4901V39.7707C0.387207 52.4732 10.6847 62.7707 23.3872 62.7707H33.4868H43.5864C56.289 62.7707 66.5864 52.4732 66.5864 39.7707V31.4901V23.2095C66.5864 10.5069 56.289 0.209473 43.5864 0.209473H33.4868H23.3872C10.6847 0.209473 0.387207 10.5069 0.387207 23.2095V31.4901Z" fill="#FEC53D"/>
<path fill-rule="evenodd" clip-rule="evenodd" d="M16.937 25.564L31.1704 33.3301C31.3237 33.4137 31.4844 33.4741 31.648 33.5124V48.5743L17.9521 40.9145C17.3229 40.5626 16.937 39.923 16.937 39.232V25.564ZM50.0367 25.3574V39.2319C50.0367 39.9228 49.6508 40.5625 49.0216 40.9144L35.3258 48.5741V33.3803C35.3591 33.3646 35.3922 33.3478 35.425 33.3299L50.0367 25.3574Z" fill="#FEC53D"/>
<path opacity="0.499209" fill-rule="evenodd" clip-rule="evenodd" d="M17.3843 21.7948C17.5581 21.5873 17.7776 21.412 18.0334 21.2832L32.5145 13.9941C33.1224 13.6882 33.8516 13.6882 34.4595 13.9941L48.9406 21.2832C49.1378 21.3825 49.3134 21.5094 49.4631 21.6574L33.5862 30.3202C33.4818 30.3772 33.3855 30.4424 33.2978 30.5144C33.2101 30.4424 33.1138 30.3772 33.0094 30.3202L17.3843 21.7948Z" fill="#FEC53D"/>
</svg>
